<?xml version="1.0" encoding="utf-8" ?>
<svg baseProfile="full" height="200mm" version="1.1" viewBox="0,0,200,200" width="200mm" xmlns="http://www.w3.org/2000/svg" xmlns:ev="http://www.w3.org/2001/xml-events" xmlns:xlink="http://www.w3.org/1999/xlink"><defs /><rect fill="#1a1a1a" height="200" width="200" x="0" y="0" /><rect fill="#1a1a1a" height="200" width="180" x="10" y="0" /><text alignment-baseline="middle" fill="#e1ed5e" style="dominant-baseline: central; font-size:9.0px; font-family:Arial;" text-anchor="middle" x="100.0" y="100.0">2025</text><line stroke="#e1ed5e" stroke-width="0.3" x1="100.0" x2="100.0" y1="15.0" y2="10.0" /><path d="M 100.0 14.0 a86.0,86.0 0 0,1 42.46469731375804,11.215312516191453" fill="none" id="id73" stroke="none" /><text fill="#e1ed5e" style="font-size:6.75px; font-family:Arial;" text-anchor="middle"><textPath startOffset="22.20632615414155" xlink:href="#id73">January</textPath></text><line stroke="#e1ed5e" stroke-width="0.3" x1="143.23703022742887" x2="145.7803849466894" y1="26.81831364943548" y2="22.513508569990506" /><path d="M 143.74570117128098 25.957352633546492 a86.0,86.0 0 0,1 28.547481713284135,27.462654790039103" fill="none" id="id74" stroke="none" /><text fill="#e1ed5e" style="font-size:6.75px; font-family:Arial;" text-anchor="middle"><textPath startOffset="19.985693538727396" xlink:href="#id74">February</textPath></text><line stroke="#e1ed5e" stroke-width="0.3" x1="172.23445277983987" x2="176.4835382374775" y1="55.19839476539836" y2="52.563006222186495" /><path d="M 173.08426987136738 54.67131705675599 a86.0,86.0 0 0,1 12.851231095245387,41.99856678651699" fill="none" id="id75" stroke="none" /><text fill="#e1ed5e" style="font-size:6.75px; font-family:Arial;" text-anchor="middle"><textPath startOffset="22.20632615414155" xlink:href="#id75">March</textPath></text><line stroke="#e1ed5e" stroke-width="0.3" x1="184.98032266829074" x2="189.97916517819016" y1="98.17113171792111" y2="98.06355123074" /><path d="M 185.9800911702706 98.14961562048488 a86.0,86.0 0 0,1 -9.607161424134198,41.387399972396054" fill="none" id="id76" stroke="none" /><text fill="#e1ed5e" style="font-size:6.75px; font-family:Arial;" text-anchor="middle"><textPath startOffset="21.466115282336823" xlink:href="#id76">April</textPath></text><line stroke="#e1ed5e" stroke-width="0.3" x1="174.80103733775053" x2="179.2010983576182" y1="140.37084112569926" y2="142.7455964860345" /><path d="M 175.68104954172406 140.8457921977663 a86.0,86.0 0 0,1 -30.038265399797805,32.042727171017184" fill="none" id="id77" stroke="none" /><text fill="#e1ed5e" style="font-size:6.75px; font-family:Arial;" text-anchor="middle"><textPath startOffset="22.206326154141568" xlink:href="#id77">May</textPath></text><line stroke="#e1ed5e" stroke-width="0.3" x1="143.8653032363475" x2="146.44561519142675" y1="172.8068346515853" y2="177.08958963109032" /><path d="M 144.38136562736335 173.6633856474863 a86.0,86.0 0 0,1 -40.68145358897372,12.25698825130547" fill="none" id="id78" stroke="none" /><text fill="#e1ed5e" style="font-size:6.75px; font-family:Arial;" text-anchor="middle"><textPath startOffset="21.466115282336833" xlink:href="#id78">June</textPath></text><path d="M 109.57404056367764 118.69057910512821 l 7.121833988784726 13.903346309809269 a36.62125340599455,36.62125340599455 0 0,0 -0.563524520662216,0.28256289323718436 l -6.88145556043975 -14.023877043955755" fill="red" stroke="none" /><path d="M 108.59647513512805 119.15986991738527 l 7.949759644879282 17.718466961877297 a40.42016348773842,40.42016348773842 0 0,0 -0.6372514503687491,0.27935230874781397 l -7.643587519852779 -17.852683823919566" fill="red" stroke="none" /><path d="M 107.93186726928326 119.44442032107085 l 8.57901377751283 21.030854925701608 a43.71335149863759,43.71335149863759 0 0,0 -0.6991615935221936,0.2782108271133148 l -8.215731107948772 -21.17541259722099" fill="red" stroke="none" /><path d="M 106.91757812671514 119.82793768551818 l 7.4563001186256646 21.3720830337533 a43.63542234332425,43.63542234332425 0 0,0 -0.7113202754374802,0.24131845792345635 l -7.087310110250957 -21.497264478574877" fill="red" stroke="none" /><path d="M 105.88484417918355 120.15858648285463 l 6.153163141758497 21.077715494152816 a42.9574931880109,42.9574931880109 0 0,0 -0.7115987131651289,0.2011049043078905 l -5.789433260488762 -21.180509191799228" fill="red" stroke="none" /><path d="M 104.83641907484287 120.43548508189849 l 6.311002900204973 26.666093988794188 a48.402724795640324,48.402724795640324 0 0,0 -0.8124278669021768,0.18490593746888925 l -5.851054883909934 -26.77077665984076" fill="red" stroke="none" /><path d="M 104.13013068566511 120.58985236759428 l 5.374903951094313 26.79539396347437 a48.32915531335149,48.32915531335149 0 0,0 -0.8170673950777985,0.15659291090345015 l -4.91286894144481 -26.88394407272629" fill="red" stroke="none" /><path d="M 103.06178313531738 120.77559828337769 l 4.114794991872749 27.92076512000945 a49.22234332425069,49.22234332425069 0 0,0 -0.8392911342476169,0.1163181035684873 l -3.633575266438301 -27.98745778907054" fill="red" stroke="none" /><path d="M 102.34483914955558 120.86867818915974 l 3.0520939941198706 27.163128600282196 a48.334059945504094,48.334059945504094 0 0,0 -0.8275882109578121,0.08578290186981757 l -2.584073186556456 -27.211640870607773" fill="red" stroke="none" /><path d="M 101.62511606390274 120.93702456842531 l 2.1965530086511955 28.299076804111394 a49.3841961852861,49.3841961852861 0 0,0 -0.8480847701625361,0.05848889113622002 l -1.7091054777097288 -28.332694039763897" fill="red" stroke="none" /><path d="M 100.90346689309514 120.98055641714683 l 1.3164803299386365 30.571667922128245 a51.60000000000001,51.60000000000001 0 0,0 -0.8877157073137116,0.030574723867312418 l -0.7900442709502725 -30.58979944442165" fill="red" stroke="none" /><line stroke="#e1ed5e" stroke-width="0.3" x1="102.19456741930631" x2="102.32365962044197" y1="184.97166512339345" y2="189.96999836594603" /><path d="M 102.22038585953345 185.97133177190398 a86.0,86.0 0 0,1 -42.740103519485714,-10.115201625700543" fill="none" id="id79" stroke="none" /><text fill="#e1ed5e" style="font-size:6.75px; font-family:Arial;" text-anchor="middle"><textPath startOffset="22.20632615414155" xlink:href="#id79">July</textPath></text><path d="M 100.18074693466247 120.99922214144158 l 0.2107565074656399 24.48574149426221 a45.486648501362396,45.486648501362396 0 0,0 -0.7830068842561738,0.0 l 0.21075650746562305 -24.48574149426221" fill="red" stroke="none" /><path d="M 99.45781275523022 120.99299961872073 l -0.7048082432140288 27.289537560674137 a48.29863760217984,48.29863760217984 0 0,0 -0.8309197527385426,-0.02861855635376048 l 1.1744483476272145 -27.273362205894284" fill="red" stroke="none" /><path d="M 98.37488393609728 120.93702456842531 l -2.120853428147598 27.323808629716083 a48.40599455040872,48.40599455040872 0 0,0 -0.8301759044143652,-0.07163107023089976 l 2.590873650303505 -27.283253307206518" fill="red" stroke="none" /><path d="M 97.65516085044442 120.86867818915974 l -3.2149275107725352 28.61231979878203 a49.792370572207076,49.792370572207076 0 0,0 -0.8509103018870534,-0.10303338746317954 l 3.706965235710978 -28.5527408825935" fill="red" stroke="none" /><path d="M 96.22490169976321 120.6578951692458 l -3.9262589769531675 21.485068706190045 a42.840871934604905,42.840871934604905 0 0,0 -0.7242808074653001,-0.13881014055357144 l 4.295507398990162 -21.414301367288008" fill="red" stroke="none" /><path d="M 95.51606077576429 120.51570834832081 l -6.184543136580465 28.29661083984044 a49.96457765667575,49.96457765667575 0 0,0 -0.8386431841939896,-0.1908724583347552 l 6.670706470167317 -28.185961647928" fill="red" stroke="none" /><path d="M 94.11515582081647 120.15858648285463 l -7.961147318152772 27.270981495723245 a49.40926430517712,49.40926430517712 0 0,0 -0.8143706128818132,-0.24536318527728782 l 8.429392905474831 -27.12990294134023" fill="red" stroke="none" /><path d="M 93.42475214034765 119.94407469862007 l -8.531185739896154 25.8768352609733 a48.246866485013626,48.246866485013626 0 0,0 -0.7864934613693678,-0.26682128405212074 l 8.975348934202747 -25.726150990023058" fill="red" stroke="none" /><path d="M 92.7421414339146 119.70592522655815 l -9.818591537786377 26.65861133996894 a49.40926430517712,49.40926430517712 0 0,0 -0.79555922056697,-0.30081242392194096 l 10.276020979113628 -26.485650665940366" fill="red" stroke="none" /><path d="M 92.06813273071674 119.44442032107085 l -10.028918358927939 24.585195051343838 a47.55204359673024,47.55204359673024 0 0,0 -0.7552363666062134,-0.31568886249288125 l 10.450626185031615 -24.408921145830984" fill="red" stroke="none" /><path d="M 91.07499286063937 119.00905698771935 l -11.45231161333762 24.391873384501324 a47.94659400544959,47.94659400544959 0 0,0 -0.7440565523291216,-0.35719236136020505 l 11.870480833666983 -24.191126746641558" fill="red" stroke="none" /><line stroke="#e1ed5e" stroke-width="0.3" x1="58.666819895761336" x2="56.23545636021788" y1="174.27360380694188" y2="178.64263932499728" /><path d="M 58.180547188652646 175.14741091055294 a86.0,86.0 0 0,1 -31.652253787137756,-30.449443065178592" fill="none" id="id80" stroke="none" /><text fill="#e1ed5e" style="font-size:6.75px; font-family:Arial;" text-anchor="middle"><textPath startOffset="22.20632615414155" xlink:href="#id80">August</textPath></text><path d="M 88.54995079064634 117.60387380957326 l -13.652998861310282 20.990797915559398 a46.04032697547683,46.04032697547683 0 0,0 -0.6606245426664866,-0.43782592412407034 l 14.01229810271673 -20.75267397034401" fill="red" stroke="none" /><path d="M 87.95078237400918 117.19931262002967 l -15.662888525266176 22.357544252303793 a48.298092643051774,48.298092643051774 0 0,0 -0.6768004181844274,-0.4828791282089627 l 16.045416271299487 -22.084620862250613" fill="red" stroke="none" /><path d="M 86.51685102203217 116.09983520530335 l -21.07688927299407 25.167299159129694 a53.82724795640327,53.82724795640327 0 0,0 -0.7052254387454104,-0.6010084184380021 l 21.506980188316536 -24.80076635046874" fill="red" stroke="none" /><path d="M 85.70375840098266 115.38237550388516 l -18.618318013408203 20.03281470513759 a48.34877384196186,48.34877384196186 0 0,0 -0.6047376352107676,-0.5718171799118005 l 18.960391483009783 -19.70936288847986" fill="red" stroke="none" /><path d="M 84.9287848128048 114.62390073753433 l -22.402079530487956 21.737184646301507 a52.214713896457766,52.214713896457766 0 0,0 -0.6203442399423009,-0.6504284554759137 l 22.772930321809216 -21.348349074243096" fill="red" stroke="none" /><path d="M 84.4343377721795 114.09645910891817 l -20.232331378411143 18.32265327228476 a48.29591280653951,48.29591280653951 0 0,0 -0.5527378686289277,-0.6210068549385024 l 20.544728096688406 -17.97167224760539" fill="red" stroke="none" /><path d="M 83.95833913139862 113.55231037782056 l -23.57564240227073 19.91716604715485 a51.862670299727526,51.862670299727526 0 0,0 -0.570252287067132,-0.6869056152328424 l 23.9149906892314 -19.508399174808247" fill="red" stroke="none" /><path d="M 83.06392112726016 112.41649034213515 l -20.031028072735527 14.685516551796894 a45.83760217983651,45.83760217983651 0 0,0 -0.4610394214013988,-0.640343432679218 l 20.280847286512532 -14.338539513666536" fill="red" stroke="none" /><path d="M 82.6465618267979 111.8261652097733 l -31.384797368755 21.388372439723117 a58.979836512261585,58.979836512261585 0 0,0 -0.5645125705879713,-0.8438696989576273 l 31.7483130447537 -20.844965826559665" fill="red" stroke="none" /><path d="M 82.05923443525364 110.91462005526583 l -32.68306066290891 19.883387255213734 a59.25613079019074,59.25613079019074 0 0,0 -0.5226366025938175,-0.8759690079484549 l 33.02047814120096 -19.317856153379168" fill="red" stroke="none" /><line stroke="#e1ed5e" stroke-width="0.3" x1="26.63291911575756" x2="22.317208475507996" y1="142.92168965132927" y2="145.44649492493687" /><path d="M 25.769776987707644 143.4266507060508 a86.0,86.0 0 0,1 -11.730757126820373,-40.83630448921669" fill="none" id="id81" stroke="none" /><text fill="#e1ed5e" style="font-size:6.75px; font-family:Arial;" text-anchor="middle"><textPath startOffset="21.46611528233685" xlink:href="#id81">September</textPath></text><path d="M 81.69416730710424 110.29060199501025 l -34.490117473336014 19.388578363714128 a60.56621253405994,60.56621253405994 0 0,0 -0.5030560121958713,-0.9131927846317478 l 34.818749894983405 -18.79201506068456" fill="red" stroke="none" /><path d="M 81.35079622478065 109.6543875284942 l -36.40454276847866 18.846035890902268 a61.993460490463214,61.993460490463214 0 0,0 -0.48243113228114365,-0.9518823922440888 l 36.723552570546076 -18.216599286955493" fill="red" stroke="none" /><path d="M 80.87730276802145 108.67885076344099 l -43.26339665442723 19.635125658708002 a68.51062670299729,68.51062670299729 0 0,0 -0.47813538733197586,-1.0780690743777803 l 43.59497312649049 -18.887508247837523" fill="red" stroke="none" /><path d="M 80.45479744820244 107.68017299344265 l -28.652602500417707 11.25887252037288 a51.785286103542234,51.785286103542234 0 0,0 -0.31886351076546526,-0.8324520082551535 l 28.84216029077668 -10.763996945284568" fill="red" stroke="none" /><path d="M 80.20201598880116 107.00284435728193 l -25.774627270632497 9.11687286145374 a48.339509536784746,48.339509536784746 0 0,0 -0.2707223594872923,-0.7868458989975373 l 25.927740461063017 -8.671854259366905" fill="red" stroke="none" /><path d="M 79.76711848015287 105.62410040840567 l -34.72799401805445 9.653282709556713 a57.04468664850136,57.04468664850136 0 0,0 -0.25483198995127215,-0.9483246344358145 l 34.889014084347494 -9.05406714194536" fill="red" stroke="none" /><path d="M 79.58551787078972 104.9243191809786 l -40.24728263449757 9.708326892884557 a62.4016348773842,62.4016348773842 0 0,0 -0.24288925332788167,-1.0463605463341588 l 40.40843245375601 -9.014097689201824" fill="red" stroke="none" /><path d="M 79.29508885075956 103.50808413554451 l -54.55382752603682 9.243189477987299 a76.33133514986375,76.33133514986375 0 0,0 -0.20834181990716816,-1.2973447114397545 l 54.70485110030528 -8.30276553685433" fill="red" stroke="none" /><path d="M 79.10278846688536 102.07522291339032 l -37.91541037396591 3.7652357710006643 a59.101907356948225,59.101907356948225 0 0,0 -0.09182017087215844,-1.0132279343228467 l 37.97460514111515 -3.112026448129251" fill="red" stroke="none" /><path d="M 79.04373962182676 101.35467743843564 l -56.535949887502 3.6546585311994098 a77.65395095367847,77.65395095367847 0 0,0 -0.0747461769892612,-1.3346432017849181 l 56.590482415378794 -2.6809436130790543" fill="red" stroke="none" /><line stroke="#e1ed5e" stroke-width="0.3" x1="15.007084014347285" x2="10.007500721073583" y1="101.09737516637583" y2="101.16192664675087" /><path d="M 14.007167355692545 101.11028546245083 a86.0,86.0 0 0,1 10.666146001902534,-42.60595125391555" fill="none" id="id82" stroke="none" /><text fill="#e1ed5e" style="font-size:6.75px; font-family:Arial;" text-anchor="middle"><textPath startOffset="22.20632615414155" xlink:href="#id82">October</textPath></text><path d="M 79.00175016825051 100.2711162175752 l -49.15612090495109 0.6346729692809552 a70.16021798365122,70.16021798365122 0 0,0 -0.005197544823153602,-1.2077263718216171 l 49.159762747063745 0.21156288074433724" fill="red" stroke="none" /><path d="M 79.00486145842228 99.54816195383935 l -41.04717121017057 -0.8833794358296893 a62.0566757493188,62.0566757493188 0 0,0 0.032175811744073544,-1.067758547609347 l 41.02588370397085 1.5898081308640306" fill="red" stroke="none" /><path d="M 79.03285615573316 98.82574320788736 l -62.90143153280056 -3.522770376337934 a84.0,84.0 0 0,0 0.09327763598234728,-1.442963742987953 l 62.831473305813795 4.604993183578899" fill="red" stroke="none" /><path d="M 79.08570108090925 98.10471618934814 l -35.69731887389015 -3.234942314207978 a56.84359673024523,56.84359673024523 0 0,0 0.09669603151260131,-0.9737158412685165 l 35.63634571669532 3.8489336861809247" fill="red" stroke="none" /><path d="M 79.16333360222342 97.38593545837743 l -32.52325964690452 -4.08020641104227 a53.778201634877384,53.778201634877384 0 0,0 0.12313671895616403,-0.9175115829773768 l 32.44820692889052 4.639436336084307" fill="red" stroke="none" /><path d="M 79.26566170972629 96.67025291283419 l -37.76194616711301 -6.064226815216915 a59.2457765667575,59.2457765667575 0 0,0 0.17036867426929894,-1.0055255595551174 l 37.65196563132349 6.713338163087861" fill="red" stroke="none" /><path d="M 79.46518482838121 95.60439243477599 l -49.53880946669775 -10.604096693549225 a71.66103542234332,71.66103542234332 0 0,0 0.2685774152849633,-1.2039798899836371 l 49.34893766441075 11.455254753082821" fill="red" stroke="none" /><line stroke="#e1ed5e" stroke-width="0.3" x1="26.266209847984243" x2="21.928928074336255" y1="57.711370442889674" y2="55.22380399835377" /><path d="M 25.398753493254645 57.213857153982495 a86.0,86.0 0 0,1 29.58750427330803,-30.492523968695096" fill="none" id="id83" stroke="none" /><text fill="#e1ed5e" style="font-size:6.75px; font-family:Arial;" text-anchor="middle"><textPath startOffset="21.46611528233685" xlink:href="#id83">November</textPath></text><line stroke="#e1ed5e" stroke-width="0.3" x1="56.76296977257108" x2="54.21961505331056" y1="26.818313649435495" y2="22.513508569990535" /><path d="M 56.25429882871898 25.957352633546506 a86.0,86.0 0 0,1 42.26535254187918,-11.944610805530505" fill="none" id="id84" stroke="none" /><text fill="#e1ed5e" style="font-size:6.75px; font-family:Arial;" text-anchor="middle"><textPath startOffset="22.20632615414155" xlink:href="#id84">December</textPath></text></svg>