<?xml version="1.0" encoding="utf-8" ?>
<svg baseProfile="full" height="200mm" version="1.1" viewBox="0,0,200,200" width="200mm" xmlns="http://www.w3.org/2000/svg" xmlns:ev="http://www.w3.org/2001/xml-events" xmlns:xlink="http://www.w3.org/1999/xlink"><defs /><rect fill="#1a1a1a" height="200" width="200" x="0" y="0" /><text alignment-baseline="middle" fill="#e1ed5e" style="dominant-baseline: central; font-size:9.0px; font-family:Arial;" text-anchor="middle" x="100.0" y="100.0">2025</text><line stroke="#e1ed5e" stroke-width="0.3" x1="100.0" x2="100.0" y1="15.0" y2="10.0" /><path d="M 100.0 14.0 a86.0,86.0 0 0,1 42.46469731375804,11.215312516191453" fill="none" id="id73" stroke="none" /><text fill="#e1ed5e" style="font-size:6.75px; font-family:Arial;" text-anchor="middle"><textPath startOffset="22.20632615414155" xlink:href="#id73">January</textPath></text><line stroke="#e1ed5e" stroke-width="0.3" x1="143.23703022742887" x2="145.7803849466894" y1="26.81831364943548" y2="22.513508569990506" /><path d="M 143.74570117128098 25.957352633546492 a86.0,86.0 0 0,1 28.547481713284135,27.462654790039103" fill="none" id="id74" stroke="none" /><text fill="#e1ed5e" style="font-size:6.75px; font-family:Arial;" text-anchor="middle"><textPath startOffset="19.985693538727396" xlink:href="#id74">February</textPath></text><line stroke="#e1ed5e" stroke-width="0.3" x1="172.23445277983987" x2="176.4835382374775" y1="55.19839476539836" y2="52.563006222186495" /><path d="M 173.08426987136738 54.67131705675599 a86.0,86.0 0 0,1 12.851231095245387,41.99856678651699" fill="none" id="id75" stroke="none" /><text fill="#e1ed5e" style="font-size:6.75px; font-family:Arial;" text-anchor="middle"><textPath startOffset="22.20632615414155" xlink:href="#id75">March</textPath></text><line stroke="#e1ed5e" stroke-width="0.3" x1="184.98032266829074" x2="189.97916517819016" y1="98.17113171792111" y2="98.06355123074" /><path d="M 185.9800911702706 98.14961562048488 a86.0,86.0 0 0,1 -9.607161424134198,41.387399972396054" fill="none" id="id76" stroke="none" /><text fill="#e1ed5e" style="font-size:6.75px; font-family:Arial;" text-anchor="middle"><textPath startOffset="21.466115282336823" xlink:href="#id76">April</textPath></text><line stroke="#e1ed5e" stroke-width="0.3" x1="174.80103733775053" x2="179.2010983576182" y1="140.37084112569926" y2="142.7455964860345" /><path d="M 175.68104954172406 140.8457921977663 a86.0,86.0 0 0,1 -30.038265399797805,32.042727171017184" fill="none" id="id77" stroke="none" /><text fill="#e1ed5e" style="font-size:6.75px; font-family:Arial;" text-anchor="middle"><textPath startOffset="22.206326154141568" xlink:href="#id77">May</textPath></text><line stroke="#e1ed5e" stroke-width="0.3" x1="143.8653032363475" x2="146.44561519142675" y1="172.8068346515853" y2="177.08958963109032" /><path d="M 144.38136562736335 173.6633856474863 a86.0,86.0 0 0,1 -40.68145358897372,12.25698825130547" fill="none" id="id78" stroke="none" /><text fill="#e1ed5e" style="font-size:6.75px; font-family:Arial;" text-anchor="middle"><textPath startOffset="21.466115282336833" xlink:href="#id78">June</textPath></text><path d="M 109.57404056367764 118.69057910512821 l 14.662599388674435 28.62453652019555 a53.16140407116525,53.16140407116525 0 0,0 -0.818042856556897,0.41018367056875826 l -14.167702624434778 -28.87268803167361" fill="red" stroke="none" /><path d="M 108.59647513512805 119.15986991738527 l 16.367152210045578 36.47919668621796 a60.9826895335791,60.9826895335791 0 0,0 -0.9614337003968109,0.4214642803219807 l -15.736797834991014 -36.7555255198344" fill="red" stroke="none" /><path d="M 107.93186726928326 119.44442032107085 l 17.662675424291123 43.29881896467978 a67.76278249719505,67.76278249719505 0 0,0 -1.0838138318841395,0.43127189107501523 l -16.914740516365118 -43.59643770016087" fill="red" stroke="none" /><path d="M 106.91757812671514 119.82793768551818 l 15.35120612658225 44.00134742243326 a67.60234011860875,67.60234011860875 0 0,0 -1.1020155784224643,0.3738635171463051 l -14.591520815222559 -44.25907392647769" fill="red" stroke="none" /><path d="M 105.88484417918355 120.15858648285463 l 12.66827705656161 43.39529660560874 a66.20660362237538,66.20660362237538 0 0,0 -1.0967244698036716,0.3099452900511476 l -11.919421418653334 -43.60693068899841" fill="red" stroke="none" /><path d="M 104.83641907484287 120.43548508189849 l 12.993241265127885 54.900781741635086 a77.41737457925949,77.41737457925949 0 0,0 -1.2994316488616295,0.2957464126946731 l -12.046289466873393 -55.11630488790744" fill="red" stroke="none" /><path d="M 104.13013068566511 120.58985236759428 l 11.065978722841232 55.166987571858996 a77.2659079980766,77.2659079980766 0 0,0 -1.306280934706684,0.2503518501113636 l -10.114730173562844 -55.34929662031883" fill="red" stroke="none" /><path d="M 103.06178313531738 120.77559828337769 l 8.471636747973307 57.483928188254744 a79.10482449110435,79.10482449110435 0 0,0 -1.3488179023546787,0.18693387080964127 l -7.480890254431797 -57.62123662455699" fill="red" stroke="none" /><path d="M 102.34483914955558 120.86867818915974 l 6.283722929070321 55.92408829469863 a77.27600577015548,77.27600577015548 0 0,0 -1.323139654260251,0.13714883515572154 l -5.320150678204468 -56.02396649831011" fill="red" stroke="none" /><path d="M 101.62511606390274 120.93702456842531 l 4.522315017811285 58.262805184935225 a79.43805096970668,79.43805096970668 0 0,0 -1.3642056852770301,0.09408361123887257 l -3.518746571755324 -58.33201714069038" fill="red" stroke="none" /><path d="M 100.90346689309514 120.98055641714683 l 2.7104006792854274 62.94166925144049 a84.0,84.0 0 0,0 -1.4451185933013908,0.04977280629562486 l -1.626561734309384 -62.97899885616221" fill="red" stroke="none" /><line stroke="#e1ed5e" stroke-width="0.3" x1="102.19456741930631" x2="102.32365962044197" y1="184.97166512339345" y2="189.96999836594603" /><path d="M 102.22038585953345 185.97133177190398 a86.0,86.0 0 0,1 -42.740103519485714,-10.115201625700543" fill="none" id="id79" stroke="none" /><text fill="#e1ed5e" style="font-size:6.75px; font-family:Arial;" text-anchor="middle"><textPath startOffset="22.20632615414155" xlink:href="#id79">July</textPath></text><path d="M 100.18074693466247 120.99922214144158 l 0.4339104565469057 50.41182072348102 a71.41368809104023,71.41368809104023 0 0,0 -1.2293147824186876,0.0 l 0.433910456546871 -50.41182072348102" fill="red" stroke="none" /><path d="M 99.45781275523022 120.99299961872073 l -1.451075794852412 56.18434203668204 a77.2030774162526,77.2030774162526 0 0,0 -1.3281857456466213,-0.045745402591253224 l 2.4179818921736764 -56.15103983566469" fill="red" stroke="none" /><path d="M 98.37488393609728 120.93702456842531 l -4.366462940303879 56.2549001200037 a77.42410642731207,77.42410642731207 0 0,0 -1.327844374932384,-0.11457199994690784 l 5.334151632977805 -56.171403867778125" fill="red" stroke="none" /><path d="M 97.65516085044442 120.86867818915974 l -6.6189684045316906 58.90771723278653 a80.27841000160281,80.27841000160281 0 0,0 -1.3718914224101104,-0.16611694578044464 l 7.63198724999319 -58.78505475828074" fill="red" stroke="none" /><path d="M 96.22490169976321 120.6578951692458 l -8.083474364315343 44.23396498333244 a65.96650104183362,65.96650104183362 0 0,0 -1.1152497249162359,-0.2137402640969074 l 8.843691703803275 -44.08826752088707" fill="red" stroke="none" /><path d="M 95.51606077576429 120.51570834832081 l -12.732882928253897 58.25772819967149 a80.6329539990383,80.6329539990383 0 0,0 -1.3534043609330095,-0.30803042624204663 l 13.733807438579769 -58.02992103985176" fill="red" stroke="none" /><path d="M 94.11515582081647 120.15858648285463 l -16.39059741972629 56.14613837354784 a79.4896618047764,79.4896618047764 0 0,0 -1.3101600582816404,-0.39474047815341956 l 17.354632452448175 -55.855682526288696" fill="red" stroke="none" /><path d="M 93.42475214034765 119.94407469862007 l -17.564205935080317 53.275837302003865 a77.09648982208688,77.09648982208688 0 0,0 -1.2567839023998788,-0.4263693356464966 l 18.478659570417424 -52.96560497945924" fill="red" stroke="none" /><path d="M 92.7421414339146 119.70592522655815 l -20.214747283677827 54.88537628817133 a79.4896618047764,79.4896618047764 0 0,0 -1.2798962760899435,-0.4839472552463135 l 21.156513780528055 -54.52928078281838" fill="red" stroke="none" /><path d="M 92.06813273071674 119.44442032107085 l -20.64777309191047 50.616578046884385 a75.66597211091522,75.66597211091522 0 0,0 -1.2017505354218703,-0.5023318212711978 l 21.5159950868298 -50.25366118259322" fill="red" stroke="none" /><path d="M 91.07499286063937 119.00905698771935 l -23.578288615695097 50.2185628504439 a76.47828177592562,76.47828177592562 0 0,0 -1.1868239620896244,-0.5697476249764294 l 24.439225245784964 -49.80526094896791" fill="red" stroke="none" /><line stroke="#e1ed5e" stroke-width="0.3" x1="58.666819895761336" x2="56.23545636021788" y1="174.27360380694188" y2="178.64263932499728" /><path d="M 58.180547188652646 175.14741091055294 a86.0,86.0 0 0,1 -31.652253787137756,-30.449443065178592" fill="none" id="id80" stroke="none" /><text fill="#e1ed5e" style="font-size:6.75px; font-family:Arial;" text-anchor="middle"><textPath startOffset="22.20632615414155" xlink:href="#id80">August</textPath></text><path d="M 88.54995079064634 117.60387380957326 l -28.109115302697642 43.21634864968112 a72.55361436127583,72.55361436127583 0 0,0 -1.0410590335674321,-0.6899571602344821 l 28.84884903500504 -42.72609346835532" fill="red" stroke="none" /><path d="M 87.95078237400918 117.19931262002967 l -32.24712343437154 46.03023816650781 a77.20195544157717,77.20195544157717 0 0,0 -1.0818297963373371,-0.7718568353240965 l 33.03468055855777 -45.46833706933949" fill="red" stroke="none" /><line stroke="#e1ed5e" stroke-width="0.3" x1="26.63291911575756" x2="22.317208475507996" y1="142.92168965132927" y2="145.44649492493687" /><path d="M 25.769776987707644 143.4266507060508 a86.0,86.0 0 0,1 -11.730757126820373,-40.83630448921669" fill="none" id="id81" stroke="none" /><text fill="#e1ed5e" style="font-size:6.75px; font-family:Arial;" text-anchor="middle"><textPath startOffset="21.46611528233685" xlink:href="#id81">September</textPath></text><line stroke="#e1ed5e" stroke-width="0.3" x1="15.007084014347285" x2="10.007500721073583" y1="101.09737516637583" y2="101.16192664675087" /><path d="M 14.007167355692545 101.11028546245083 a86.0,86.0 0 0,1 10.666146001902534,-42.60595125391555" fill="none" id="id82" stroke="none" /><text fill="#e1ed5e" style="font-size:6.75px; font-family:Arial;" text-anchor="middle"><textPath startOffset="22.20632615414155" xlink:href="#id82">October</textPath></text><line stroke="#e1ed5e" stroke-width="0.3" x1="26.266209847984243" x2="21.928928074336255" y1="57.711370442889674" y2="55.22380399835377" /><path d="M 25.398753493254645 57.213857153982495 a86.0,86.0 0 0,1 29.58750427330803,-30.492523968695096" fill="none" id="id83" stroke="none" /><text fill="#e1ed5e" style="font-size:6.75px; font-family:Arial;" text-anchor="middle"><textPath startOffset="21.46611528233685" xlink:href="#id83">November</textPath></text><line stroke="#e1ed5e" stroke-width="0.3" x1="56.762969772571076" x2="54.21961505331055" y1="26.818313649435495" y2="22.513508569990535" /><path d="M 56.25429882871897 25.957352633546506 a86.0,86.0 0 0,1 42.265352541879196,-11.944610805530505" fill="none" id="id84" stroke="none" /><text fill="#e1ed5e" style="font-size:6.75px; font-family:Arial;" text-anchor="middle"><textPath startOffset="22.20632615414155" xlink:href="#id84">December</textPath></text></svg>