<?xml version="1.0" encoding="utf-8" ?>
<svg baseProfile="full" height="200mm" version="1.1" viewBox="0,0,200,200" width="200mm" xmlns="http://www.w3.org/2000/svg" xmlns:ev="http://www.w3.org/2001/xml-events" xmlns:xlink="http://www.w3.org/1999/xlink"><defs /><rect fill="#1a1a1a" height="200" width="200" x="0" y="0" /><rect fill="#1a1a1a" height="200" width="180" x="10" y="0" /><text alignment-baseline="middle" fill="#e1ed5e" style="dominant-baseline: central; font-size:9.0px; font-family:Arial;" text-anchor="middle" x="100.0" y="100.0">2025</text><line stroke="#e1ed5e" stroke-width="0.3" x1="100.0" x2="100.0" y1="15.0" y2="10.0" /><path d="M 100.0 14.0 a86.0,86.0 0 0,1 42.46469731375804,11.215312516191453" fill="none" id="id73" stroke="none" /><text fill="#e1ed5e" style="font-size:6.75px; font-family:Arial;" text-anchor="middle"><textPath startOffset="22.20632615414155" xlink:href="#id73">January</textPath></text><line stroke="#e1ed5e" stroke-width="0.3" x1="143.23703022742887" x2="145.7803849466894" y1="26.81831364943548" y2="22.513508569990506" /><path d="M 143.74570117128098 25.957352633546492 a86.0,86.0 0 0,1 28.547481713284135,27.462654790039103" fill="none" id="id74" stroke="none" /><text fill="#e1ed5e" style="font-size:6.75px; font-family:Arial;" text-anchor="middle"><textPath startOffset="19.985693538727396" xlink:href="#id74">February</textPath></text><line stroke="#e1ed5e" stroke-width="0.3" x1="172.23445277983987" x2="176.4835382374775" y1="55.19839476539836" y2="52.563006222186495" /><path d="M 173.08426987136738 54.67131705675599 a86.0,86.0 0 0,1 12.851231095245387,41.99856678651699" fill="none" id="id75" stroke="none" /><text fill="#e1ed5e" style="font-size:6.75px; font-family:Arial;" text-anchor="middle"><textPath startOffset="22.20632615414155" xlink:href="#id75">March</textPath></text><line stroke="#e1ed5e" stroke-width="0.3" x1="184.98032266829074" x2="189.97916517819016" y1="98.17113171792111" y2="98.06355123074" /><path d="M 185.9800911702706 98.14961562048488 a86.0,86.0 0 0,1 -9.607161424134198,41.387399972396054" fill="none" id="id76" stroke="none" /><text fill="#e1ed5e" style="font-size:6.75px; font-family:Arial;" text-anchor="middle"><textPath startOffset="21.466115282336823" xlink:href="#id76">April</textPath></text><line stroke="#e1ed5e" stroke-width="0.3" x1="174.80103733775053" x2="179.2010983576182" y1="140.37084112569926" y2="142.7455964860345" /><path d="M 175.68104954172406 140.8457921977663 a86.0,86.0 0 0,1 -30.038265399797805,32.042727171017184" fill="none" id="id77" stroke="none" /><text fill="#e1ed5e" style="font-size:6.75px; font-family:Arial;" text-anchor="middle"><textPath startOffset="22.206326154141568" xlink:href="#id77">May</textPath></text><line stroke="#e1ed5e" stroke-width="0.3" x1="143.8653032363475" x2="146.44561519142675" y1="172.8068346515853" y2="177.08958963109032" /><path d="M 144.38136562736335 173.6633856474863 a86.0,86.0 0 0,1 -40.68145358897372,12.25698825130547" fill="none" id="id78" stroke="none" /><text fill="#e1ed5e" style="font-size:6.75px; font-family:Arial;" text-anchor="middle"><textPath startOffset="21.466115282336833" xlink:href="#id78">June</textPath></text><path d="M 109.57404056367764 118.69057910512821 l 5.873596329346294 11.466518874144809 a33.88332988521327,33.88332988521327 0 0,0 -0.5213936022429814,0.26143757611826074 l -5.675348819420553 -11.565924291172372" fill="red" stroke="none" /><path d="M 108.59647513512805 119.15986991738527 l 6.556412174571917 14.612966642133827 a37.016408295463464,37.016408295463464 0 0,0 -0.58358892785977,0.25582823587604514 l -6.303902572054393 -14.723659431304327" fill="red" stroke="none" /><path d="M 107.93186726928326 119.44442032107085 l 7.075377481750203 17.34479524363276 a39.73240210311543,39.73240210311543 0 0,0 -0.6354893554603,0.25287432954325345 l -6.775767050248036 -17.464016417582084" fill="red" stroke="none" /><path d="M 106.91757812671514 119.82793768551818 l 6.149440871021666 17.6262165974692 a39.6681315231892,39.6681315231892 0 0,0 -0.6466477170578364,0.21937801478264776 l -5.845123421026603 -17.72945759914997" fill="red" stroke="none" /><path d="M 105.88484417918355 120.15858648285463 l 5.07470358059677 17.383442600939816 a39.109022422292455,39.109022422292455 0 0,0 -0.6478480926958885,0.18308834217554698 l -4.774724319796276 -17.46821973645388" fill="red" stroke="none" /><path d="M 104.83641907484287 120.43548508189849 l 5.2048789016301 21.992350849126094 a43.599873014061195,43.599873014061195 0 0,0 -0.7318131774517369,0.1665582966088647 l -4.825545574785501 -22.078685879312644" fill="red" stroke="none" /><path d="M 104.13013068566511 120.58985236759428 l 4.432849202530146 22.09898852951321 a43.53919799105391,43.53919799105391 0 0,0 -0.736086920114225,0.14107281014152648 l -4.0517946678442165 -22.172018538003204" fill="red" stroke="none" /><path d="M 103.06178313531738 120.77559828337769 l 3.3935984464586544 23.02711686058436 a44.27583771482382,44.27583771482382 0 0,0 -0.7549481708062015,0.1046289373703403 l -2.9967216844656224 -23.082120363447302" fill="red" stroke="none" /><path d="M 102.34483914955558 120.86867818915974 l 2.5171561298554477 22.402270635825897 a43.543242992587736,43.543242992587736 0 0,0 -0.7455586103912409,0.0772801983722913 l -2.131164922858604 -22.442280202653944" fill="red" stroke="none" /><path d="M 101.62511606390274 120.93702456842531 l 1.8115650700571544 23.339122184295825 a44.40932276543985,44.40932276543985 0 0,0 -0.7626502646574108,0.052596827432719734 l -1.4095520446208132 -23.36684735624483" fill="red" stroke="none" /><path d="M 100.90346689309514 120.98055641714683 l 1.0857419655893508 25.213398230312798 a46.23676456949627,46.23676456949627 0 0,0 -0.795447716350929,0.027396827698261295 l -0.6515738975637695 -25.228351856437154" fill="red" stroke="none" /><line stroke="#e1ed5e" stroke-width="0.3" x1="102.19456741930631" x2="102.32365962044197" y1="184.97166512339345" y2="189.96999836594603" /><path d="M 102.22038585953345 185.97133177190398 a86.0,86.0 0 0,1 -42.740103519485714,-10.115201625700543" fill="none" id="id79" stroke="none" /><text fill="#e1ed5e" style="font-size:6.75px; font-family:Arial;" text-anchor="middle"><textPath startOffset="22.20632615414155" xlink:href="#id79">July</textPath></text><path d="M 100.18074693466247 120.99922214144158 l 0.17381739739868096 20.194146843145138 a41.19489487989841,41.19489487989841 0 0,0 -0.709128664122259,0.0 l 0.17381739739866706 -20.194146843145138" fill="red" stroke="none" /><path d="M 99.45781275523022 120.99299961872073 l -0.5812771143997618 22.506524007488846 a43.514029092621264,43.514029092621264 0 0,0 -0.748606339419122,-0.025783515966300272 l 0.9686038054935269 -22.49318369309645" fill="red" stroke="none" /><path d="M 98.37488393609728 120.93702456842531 l -1.7491332892996734 22.534788416016834 a43.60256968175041,43.60256968175041 0 0,0 -0.7477958681882281,-0.06452297406819406 l 2.136773475229443 -22.501341189669976" fill="red" stroke="none" /><path d="M 97.65516085044442 120.86867818915974 l -2.651449957430169 23.597463351274477 a44.74595678197656,44.74595678197656 0 0,0 -0.764671277065671,-0.09259104255424733 l 3.057248657547229 -23.548326779994884" fill="red" stroke="none" /><path d="M 96.22490169976321 120.6578951692458 l -3.238106975171188 17.719399369201632 a39.01284127471054,39.01284127471054 0 0,0 -0.6595629571474436,-0.1264068105103726 l 3.542637546890327 -17.661035360342794" fill="red" stroke="none" /><path d="M 95.51606077576429 120.51570834832081 l -5.100583630973044 23.337088427441472 a44.887981280275085,44.887981280275085 0 0,0 -0.7534337588441591,-0.17147907054320563 l 5.501537539210066 -23.24583262332058" fill="red" stroke="none" /><path d="M 94.11515582081647 120.15858648285463 l -6.565803940238499 22.491220247929952 a44.429997217723816,44.429997217723816 0 0,0 -0.7323016153621172,-0.2206364695468556 l 6.951980530040862 -22.374868409277372" fill="red" stroke="none" /><path d="M 93.42475214034765 119.94407469862007 l -7.035932222758269 21.341424813229498 a43.47133185420873,43.47133185420873 0 0,0 -0.7086453639631313,-0.24041098271944192 l 7.402247319658626 -21.217150843611932" fill="red" stroke="none" /><path d="M 92.7421414339146 119.70592522655815 l -8.097695524286374 21.98617967766338 a44.429997217723816,44.429997217723816 0 0,0 -0.7153859595642951,-0.2704977567639718 l 8.474951704610952 -21.843533670792773" fill="red" stroke="none" /><path d="M 92.06813273071674 119.44442032107085 l -8.27115854610991 20.276169261631022 a42.89828997025105,42.89828997025105 0 0,0 -0.6813240020872612,-0.28479348812948885 l 8.618954007694635 -20.13079073048156" fill="red" stroke="none" /><path d="M 91.07499286063937 119.00905698771935 l -9.445074900729066 20.11673091547784 a43.22368787141603,43.22368787141603 0 0,0 -0.6707643961717175,-0.32200767244765577 l 9.789951964901025 -19.951168966530624" fill="red" stroke="none" /><line stroke="#e1ed5e" stroke-width="0.3" x1="58.666819895761336" x2="56.23545636021788" y1="174.27360380694188" y2="178.64263932499728" /><path d="M 58.180547188652646 175.14741091055294 a86.0,86.0 0 0,1 -31.652253787137756,-30.449443065178592" fill="none" id="id80" stroke="none" /><text fill="#e1ed5e" style="font-size:6.75px; font-family:Arial;" text-anchor="middle"><textPath startOffset="22.20632615414155" xlink:href="#id80">August</textPath></text><path d="M 88.54995079064634 117.60387380957326 l -11.260049605571512 17.31175899087731 a41.65153060860508,41.65153060860508 0 0,0 -0.5976504765990299,-0.3960901470054265 l 11.556374780910504 -17.115370822780562" fill="red" stroke="none" /><path d="M 87.95078237400918 117.19931262002967 l -12.917667653281274 18.438956883904744 a43.51357964800639,43.51357964800639 0 0,0 -0.6097551122799635,-0.43504408260940663 l 13.233150093410122 -18.21386853945112" fill="red" stroke="none" /><path d="M 86.51685102203217 116.09983520530335 l -17.38276119084617 20.756248487877045 a48.07364471046493,48.07364471046493 0 0,0 -0.6298437774579845,-0.5367665313186404 l 17.73747044488121 -20.453957566335454" fill="red" stroke="none" /><path d="M 85.70375840098266 115.38237550388516 l -15.355101581189352 16.521680665944444 a43.55537799718919,43.55537799718919 0 0,0 -0.5447827152106843,-0.5151260608542995 l 15.637220130790851 -16.25491996834422" fill="red" stroke="none" /><path d="M 84.9287848128048 114.62390073753433 l -18.47568650255085 17.927327167398044 a46.74373809506824,46.74373809506824 0 0,0 -0.5553455437513035,-0.5822775823810159 l 18.781538597681113 -17.606642468434526" fill="red" stroke="none" /><path d="M 84.4343377721795 114.09645910891817 l -16.686228225130524 15.111257742521598 a43.51178186954692,43.51178186954692 0 0,0 -0.49798436706560417,-0.5594907154942248 l 16.94387144184446 -14.821792857286507" fill="red" stroke="none" /><path d="M 83.95833913139862 113.55231037782056 l -19.443560028782343 16.42630164783044 a46.453396873863014,46.453396873863014 0 0,0 -0.5107750074622887,-0.6152614004424665 l 19.72343103613817 -16.08917899027421" fill="red" stroke="none" /><path d="M 83.06392112726016 112.41649034213515 l -16.520207175052192 12.111598816965323 a41.4843372118739,41.4843372118739 0 0,0 -0.4172538247167771,-0.5795290684807872 l 16.726240792144576 -11.825436143033397" fill="red" stroke="none" /><path d="M 82.6465618267979 111.8261652097733 l -25.884011184856725 17.63965097339852 a52.323143544049145,52.323143544049145 0 0,0 -0.5007994936905937,-0.7486272936998413 l 26.18381378395805 -17.191486765492858" fill="red" stroke="none" /><path d="M 82.05923443525364 110.91462005526583 l -26.95472899870577 16.39844323542325 a52.5510119637876,52.5510119637876 0 0,0 -0.46349773414783235,-0.776848862771626 l 27.233007608551834 -15.932032278765513" fill="red" stroke="none" /><line stroke="#e1ed5e" stroke-width="0.3" x1="26.63291911575756" x2="22.317208475507996" y1="142.92168965132927" y2="145.44649492493687" /><path d="M 25.769776987707644 143.4266507060508 a86.0,86.0 0 0,1 -11.730757126820373,-40.83630448921669" fill="none" id="id81" stroke="none" /><text fill="#e1ed5e" style="font-size:6.75px; font-family:Arial;" text-anchor="middle"><textPath startOffset="21.46611528233685" xlink:href="#id81">September</textPath></text><path d="M 81.69416730710424 110.29060199501025 l -28.44506453100818 15.990359068702046 a53.631476817932125,53.631476817932125 0 0,0 -0.44545689300007024,-0.8086336524962403 l 28.71609783345977 -15.498354897807983" fill="red" stroke="none" /><path d="M 81.35079622478065 109.6543875284942 l -30.023950166936405 15.542907544018869 a54.80857226427344,54.80857226427344 0 0,0 -0.4265185612639568,-0.8415615852001906 l 30.287047397986626 -15.023791747115993" fill="red" stroke="none" /><path d="M 80.87730276802145 108.67885076344099 l -35.68065868772917 16.193694233375464 a60.18348041348906,60.18348041348906 0 0,0 -0.42002026697605804,-0.9470348199188913 l 35.95412003943651 -15.577111076963876" fill="red" stroke="none" /><path d="M 80.45479744820244 107.68017299344265 l -23.630685738771305 9.285539709628154 a46.389575738551656,46.389575738551656 0 0,0 -0.2856398814392807,-0.745715595902064 l 23.787019899804093 -8.877400546892932" fill="red" stroke="none" /><path d="M 80.20201598880116 107.00284435728193 l -21.25713072861014 7.518966471063324 a43.54773743873642,43.54773743873642 0 0,0 -0.24388634354629768,-0.7088478750123951 l 21.383407903099666 -7.151945892961632" fill="red" stroke="none" /><path d="M 79.76711848015287 105.62410040840567 l -28.641248660278258 7.961360230845481 a50.727165716650134,50.727165716650134 0 0,0 -0.2266101427432683,-0.8433006421899772 l 28.774046879363297 -7.4671686554799654" fill="red" stroke="none" /><path d="M 79.58551787078972 104.9243191809786 l -33.19317635322845 8.00675686795545 a55.14520628081014,55.14520628081014 0 0,0 -0.214644664430296,-0.9246835965929292 l 33.32608158358931 -7.434204614013947" fill="red" stroke="none" /><path d="M 79.29508885075956 103.50808413554451 l -44.992225543774396 7.623143683895773 a66.63346008147076,66.63346008147076 0 0,0 -0.1818720491765175,-1.132517423832621 l 45.1167793473122 -6.847547030369938" fill="red" stroke="none" /><path d="M 79.10278846688536 102.07522291339032 l -31.27000931907236 3.1053061667120763 a52.423819137779745,52.423819137779745 0 0,0 -0.08144515543179279,-0.8987405034745032 l 31.31882907078123 -2.566584274689007" fill="red" stroke="none" /><path d="M 79.04373962182676 101.35467743843564 l -46.62694303999107 3.0141097037183178 a67.72426216175725,67.72426216175725 0 0,0 -0.06518830817802759,-1.1639810335472338 l 46.67191769905663 -2.211056953835646" fill="red" stroke="none" /><line stroke="#e1ed5e" stroke-width="0.3" x1="15.007084014347285" x2="10.007500721073583" y1="101.09737516637583" y2="101.16192664675087" /><path d="M 14.007167355692545 101.11028546245083 a86.0,86.0 0 0,1 10.666146001902534,-42.60595125391555" fill="none" id="id82" stroke="none" /><text fill="#e1ed5e" style="font-size:6.75px; font-family:Arial;" text-anchor="middle"><textPath startOffset="22.20632615414155" xlink:href="#id82">October</textPath></text><path d="M 79.00175016825051 100.2711162175752 l -40.540570275423015 0.5234343890315882 a61.543949262696806,61.543949262696806 0 0,0 -0.004559242318222211,-1.059407349160895 l 40.54357381503074 0.17448243833298213" fill="red" stroke="none" /><path d="M 79.00486145842228 99.54816195383935 l -33.85286915277384 -0.728550289136219 a54.860707839598206,54.860707839598206 0 0,0 0.028444769016053976,-0.9439434036115464 l 33.83531268930214 1.3111638401727597" fill="red" stroke="none" /><path d="M 79.03285615573316 98.82574320788736 l -51.876752244365235 -2.905337471243013 a72.95804470190407,72.95804470190407 0 0,0 0.08101611828200034,-1.2532834912397843 l 51.81905553507882 3.7978800267358093" fill="red" stroke="none" /><path d="M 79.08570108090925 98.10471618934814 l -29.440680790281085 -2.6679567836460185 a50.561320653763566,50.561320653763566 0 0,0 0.08600931919309197,-0.8661021066218203 l 29.390394345405763 3.174334420972269" fill="red" stroke="none" /><path d="M 79.16333360222342 97.38593545837743 l -26.82293616802378 -3.3650721761576174 a48.03319469512674,48.03319469512674 0 0,0 0.10998229423693923,-0.8194958395857626 l 26.76103787472901 3.8262863578080393" fill="red" stroke="none" /><path d="M 79.26566170972629 96.67025291283419 l -31.14344265050402 -5.001355046786125 a52.54247251610511,52.54247251610511 0 0,0 0.15109248125583005,-0.8917563772268989 l 31.052738307727967 5.5366972123288525" fill="red" stroke="none" /><path d="M 79.46518482838121 95.60439243477599 l -40.85618534523477 -8.745525873440378 a62.781719732045396,62.781719732045396 0 0,0 0.23529874936080503,-1.0547981559362714 l 40.69959220887193 9.447502198926609" fill="red" stroke="none" /><path d="M 79.91906864156998 93.8553929516997 l -51.641285363748935 -15.801827134684636 a75.00481547801645,75.00481547801645 0 0,0 0.38839820829581123,-1.231328459679222 l 51.36163167168492 16.688405760790275" fill="red" stroke="none" /><path d="M 80.14247586403 93.16781622104843 l -38.34161190046883 -13.191822761566218 a61.547544819615766,61.547544819615766 0 0,0 0.35330318627261176,-0.9988356839114091 l 38.108855633386405 13.849856071904238" fill="red" stroke="none" /><path d="M 80.38941819471856 92.48833698450439 l -31.56205014711458 -12.089569148807625 a54.79823503813145,54.79823503813145 0 0,0 0.34498476795905203,-0.8779486051683415 l 31.349271829273835 12.63106675887173" fill="red" stroke="none" /><path d="M 80.803312248108 91.48605970444005 l -57.59006325567602 -25.54182088667983 a84.0,84.0 0 0,0 0.5975907321465934,-1.3167119646317162 l 57.141870206566075 26.529354860153617" fill="red" stroke="none" /><path d="M 81.10775173730289 90.83032412892265 l -26.055703387167245 -12.646581356069179 a49.96266042675837,49.96266042675837 0 0,0 0.3821905297032143,-0.7704727862994324 l 25.83415284451062 13.093213730867573" fill="red" stroke="none" /><line stroke="#e1ed5e" stroke-width="0.3" x1="26.266209847984243" x2="21.928928074336255" y1="57.711370442889674" y2="55.22380399835377" /><path d="M 25.398753493254645 57.213857153982495 a86.0,86.0 0 0,1 29.58750427330803,-30.492523968695096" fill="none" id="id83" stroke="none" /><text fill="#e1ed5e" style="font-size:6.75px; font-family:Arial;" text-anchor="middle"><textPath startOffset="21.46611528233685" xlink:href="#id83">November</textPath></text><path d="M 81.78341655067845 89.55222093294921 l -9.641963686697958 -5.529967057291339 a32.11521477031953,32.11521477031953 0 0,0 0.27915817898236334,-0.4771718183340988 l 9.545345833245273 5.695118287979329" fill="red" stroke="none" /><path d="M 82.34701348167596 88.62581576622439 l -23.169285059952102 -14.92844944753174 a48.56219100682728,48.56219100682728 0 0,0 0.458804861435518,-0.6987912807585427 l 22.908883563158664 15.32505879226795" fill="red" stroke="none" /><path d="M 83.17141714833178 87.43820079747577 l -18.029981327813005 -13.458590486292573 a43.49919742033059,43.49919742033059 0 0,0 0.4530629074651275,-0.5961776787870486 l 17.79564248012377 13.766952940960646" fill="red" stroke="none" /><path d="M 83.6137871275137 86.86637796730984 l -25.970720639333543 -20.8156473645175 a54.283171509491844,54.283171509491844 0 0,0 0.5906565021330806,-0.7240750316042001 l 25.60856564512407 21.259606565729783" fill="red" stroke="none" /><path d="M 84.31358615837235 86.03803664274999 l -27.000824401847993 -24.032549741466408 a57.14703259543565,57.14703259543565 0 0,0 0.660337660914506,-0.7291613380839433 l 26.58314310031744 24.493763866819908" fill="red" stroke="none" /><path d="M 85.05521093208273 85.24692304244772 l -32.04163714388825 -31.630606258909694 a66.02401318370872,66.02401318370872 0 0,0 0.8053804050927311,-0.8019218456842131 l 31.492420938628204 32.177463955244015" fill="red" stroke="none" /><line stroke="#e1ed5e" stroke-width="0.3" x1="56.76296977257108" x2="54.21961505331056" y1="26.818313649435495" y2="22.513508569990535" /><path d="M 56.25429882871898 25.957352633546506 a86.0,86.0 0 0,1 42.26535254187918,-11.944610805530505" fill="none" id="id84" stroke="none" /><text fill="#e1ed5e" style="font-size:6.75px; font-family:Arial;" text-anchor="middle"><textPath startOffset="22.20632615414155" xlink:href="#id84">December</textPath></text></svg>