<?xml version="1.0" encoding="utf-8" ?>
<svg baseProfile="full" height="200mm" version="1.1" viewBox="0,0,200,200" width="200mm" xmlns="http://www.w3.org/2000/svg" xmlns:ev="http://www.w3.org/2001/xml-events" xmlns:xlink="http://www.w3.org/1999/xlink"><defs /><rect fill="#1a1a1a" height="200" width="200" x="0" y="0" /><text alignment-baseline="middle" fill="#e1ed5e" style="dominant-baseline: central; font-size:9.0px; font-family:Arial;" text-anchor="middle" x="100.0" y="100.0">2025</text><line stroke="#e1ed5e" stroke-width="0.3" x1="100.0" x2="100.0" y1="15.0" y2="10.0" /><path d="M 100.0 14.0 a86.0,86.0 0 0,1 42.46469731375804,11.215312516191453" fill="none" id="id73" stroke="none" /><text fill="#e1ed5e" style="font-size:6.75px; font-family:Arial;" text-anchor="middle"><textPath startOffset="22.20632615414155" xlink:href="#id73">January</textPath></text><line stroke="#e1ed5e" stroke-width="0.3" x1="143.23703022742887" x2="145.7803849466894" y1="26.81831364943548" y2="22.513508569990506" /><path d="M 143.74570117128098 25.957352633546492 a86.0,86.0 0 0,1 28.547481713284135,27.462654790039103" fill="none" id="id74" stroke="none" /><text fill="#e1ed5e" style="font-size:6.75px; font-family:Arial;" text-anchor="middle"><textPath startOffset="19.985693538727396" xlink:href="#id74">February</textPath></text><line stroke="#e1ed5e" stroke-width="0.3" x1="172.23445277983987" x2="176.4835382374775" y1="55.19839476539836" y2="52.563006222186495" /><path d="M 173.08426987136738 54.67131705675599 a86.0,86.0 0 0,1 12.851231095245387,41.99856678651699" fill="none" id="id75" stroke="none" /><text fill="#e1ed5e" style="font-size:6.75px; font-family:Arial;" text-anchor="middle"><textPath startOffset="22.20632615414155" xlink:href="#id75">March</textPath></text><line stroke="#e1ed5e" stroke-width="0.3" x1="184.98032266829074" x2="189.97916517819016" y1="98.17113171792111" y2="98.06355123074" /><path d="M 185.9800911702706 98.14961562048488 a86.0,86.0 0 0,1 -9.607161424134198,41.387399972396054" fill="none" id="id76" stroke="none" /><text fill="#e1ed5e" style="font-size:6.75px; font-family:Arial;" text-anchor="middle"><textPath startOffset="21.466115282336823" xlink:href="#id76">April</textPath></text><line stroke="#e1ed5e" stroke-width="0.3" x1="174.80103733775053" x2="179.2010983576182" y1="140.37084112569926" y2="142.7455964860345" /><path d="M 175.68104954172406 140.8457921977663 a86.0,86.0 0 0,1 -30.038265399797805,32.042727171017184" fill="none" id="id77" stroke="none" /><text fill="#e1ed5e" style="font-size:6.75px; font-family:Arial;" text-anchor="middle"><textPath startOffset="22.206326154141568" xlink:href="#id77">May</textPath></text><line stroke="#e1ed5e" stroke-width="0.3" x1="143.8653032363475" x2="146.44561519142675" y1="172.8068346515853" y2="177.08958963109032" /><path d="M 144.38136562736335 173.6633856474863 a86.0,86.0 0 0,1 -40.68145358897372,12.25698825130547" fill="none" id="id78" stroke="none" /><text fill="#e1ed5e" style="font-size:6.75px; font-family:Arial;" text-anchor="middle"><textPath startOffset="21.466115282336833" xlink:href="#id78">June</textPath></text><path d="M 109.57404056367764 118.69057910512821 l 13.667778118022813 26.68243218807896 a50.97933198313357,50.97933198313357 0 0,0 -0.7844653294901371,0.39334720143945723 l -13.206458880849915 -26.91374723042772" fill="red" stroke="none" /><path d="M 108.59647513512805 119.15986991738527 l 15.256681226904433 34.004172999233454 a58.26996248215412,58.26996248215412 0 0,0 -0.9186657079195041,0.402716049255372 l -14.669094844327176 -34.261753601783276" fill="red" stroke="none" /><path d="M 107.93186726928326 119.44442032107085 l 16.464306380513477 40.3611006953374 a64.59004283010722,64.59004283010722 0 0,0 -1.0330682897231516,0.41107919258052356 l -15.76711701474846 -40.638526732323996" fill="red" stroke="none" /><path d="M 106.91757812671514 119.82793768551818 l 14.309664584045285 41.01596432678791 a64.44048607191473,64.44048607191473 0 0,0 -1.0504728003168322,0.356377408344061 l -13.601522050791226 -41.25620472203009" fill="red" stroke="none" /><path d="M 105.88484417918355 120.15858648285463 l 11.808765646319449 40.45103256584774 a63.13944686078555,63.13944686078555 0 0,0 -1.0459164583801326,0.2955864385153468 l -11.11071801983471 -40.648307797701605" fill="red" stroke="none" /><path d="M 104.83641907484287 120.43548508189849 l 12.111681833364253 51.17589886076151 a73.58959460805471,73.58959460805471 0 0,0 -1.2351833006517603,0.2811236978167701 l -11.228978383319632 -51.376799292155965" fill="red" stroke="none" /><path d="M 104.13013068566511 120.58985236759428 l 10.315179309841927 51.424043280777155 a73.44840466150933,73.44840466150933 0 0,0 -1.2417410625180194,0.23798263000021563 l -9.428470632752203 -51.593983109125844" fill="red" stroke="none" /><path d="M 103.06178313531738 120.77559828337769 l 7.8968570509553615 53.58378518042917 a75.16255519771573,75.16255519771573 0 0,0 -1.2815981918877948,0.1776178314463279 l -6.973330267880736 -53.711777577368096" fill="red" stroke="none" /><path d="M 102.34483914955558 120.86867818915974 l 5.8573877982374505 52.129776583479234 a73.45781732461236,73.45781732461236 0 0,0 -1.2577636492586115,0.1303723449309445 l -4.959191552373236 -52.222878296865936" fill="red" stroke="none" /><path d="M 101.62511606390274 120.93702456842531 l 4.215487077345222 54.30981729040303 a75.47317308011554,75.47317308011554 0 0,0 -1.2961160368984201,0.0893877504338769 l -3.280008279667871 -54.3743333853532" fill="red" stroke="none" /><path d="M 100.90346689309514 120.98055641714683 l 2.526506665934394 58.67123194889663 a79.72560509977092,79.72560509977092 0 0,0 -1.371582789189085,0.04724008451705214 l -1.5162035250706571 -58.70602883183978" fill="red" stroke="none" /><line stroke="#e1ed5e" stroke-width="0.3" x1="102.19456741930631" x2="102.32365962044197" y1="184.97166512339345" y2="189.96999836594603" /><path d="M 102.22038585953345 185.97133177190398 a86.0,86.0 0 0,1 -42.740103519485714,-10.115201625700543" fill="none" id="id79" stroke="none" /><text fill="#e1ed5e" style="font-size:6.75px; font-family:Arial;" text-anchor="middle"><textPath startOffset="22.20632615414155" xlink:href="#id79">July</textPath></text><path d="M 100.18074693466247 120.99922214144158 l 0.40447070031483956 46.99150279631102 a67.99324346757861,67.99324346757861 0 0,0 -1.1704352699545577,0.0 l 0.4044707003148072 -46.99150279631102" fill="red" stroke="none" /><path d="M 99.45781275523022 120.99299961872073 l -1.3526238745768084 52.372372749788056 a73.3898369799794,73.3898369799794 0 0,0 -1.2625835473705826,-0.0434859302389524 l 2.253927773622034 -52.341330021123014" fill="red" stroke="none" /><path d="M 98.37488393609728 120.93702456842531 l -4.070209179604287 52.438143640863366 a73.59586971679006,73.59586971679006 0 0,0 -1.26218907948834,-0.10890698479292016 l 4.972242576834169 -52.36031240379178" fill="red" stroke="none" /><path d="M 97.65516085044442 120.86867818915974 l -6.16988769352998 54.91097364351732 a76.25651582057836,76.25651582057836 0 0,0 -1.3031605876977834,-0.15779459886811062 l 7.114175704279153 -54.79663351592386" fill="red" stroke="none" /><path d="M 96.22490169976321 120.6578951692458 l -7.535030529411184 41.23279935886152 a62.91563464922474,62.91563464922474 0 0,0 -1.0636708500119036,-0.20385504996273549 l 8.243668993994783 -41.096987110550316" fill="red" stroke="none" /><path d="M 95.51606077576429 120.51570834832081 l -11.86898816867068 54.3050847660904 a76.58700488064012,76.58700488064012 0 0,0 -1.2854940970845776,-0.2925742712869809 l 12.802002415148122 -54.09273376122574" fill="red" stroke="none" /><path d="M 94.11515582081647 120.15858648285463 l -15.278535736828099 52.336761111143886 a75.52128224708656,75.52128224708656 0 0,0 -1.2447526546703926,-0.3750337639904639 l 16.17716336593874 -52.06601197804769" fill="red" stroke="none" /><path d="M 93.42475214034765 119.94407469862007 l -16.372517803723476 49.6612029009067 a73.2904810916697,73.2904810916697 0 0,0 -1.19474047453669,-0.4053208363231481 l 17.22492801119739 -49.37201907768544" fill="red" stroke="none" /><path d="M 92.7421414339146 119.70592522655815 l -18.84322644718938 51.16153862938857 a75.52128224708656,75.52128224708656 0 0,0 -1.2159997378146543,-0.45978705188004154 l 19.721096405764317 -50.8296033274019" fill="red" stroke="none" /><path d="M 92.06813273071674 119.44442032107085 l -19.246872520400153 47.182367839413736 a71.95702048540788,71.95702048540788 0 0,0 -1.1428438105432999,-0.4777088054944785 l 20.056187790440916 -46.84407399089929" fill="red" stroke="none" /><path d="M 91.07499286063937 119.00905698771935 l -21.978559780535466 46.811356994177686 a72.71421693947342,72.71421693947342 0 0,0 -1.1284115312788856,-0.5417061084696998 l 22.781083979814596 -46.42609660920842" fill="red" stroke="none" /><line stroke="#e1ed5e" stroke-width="0.3" x1="58.666819895761336" x2="56.23545636021788" y1="174.27360380694188" y2="178.64263932499728" /><path d="M 58.180547188652646 175.14741091055294 a86.0,86.0 0 0,1 -31.652253787137756,-30.449443065178592" fill="none" id="id80" stroke="none" /><text fill="#e1ed5e" style="font-size:6.75px; font-family:Arial;" text-anchor="middle"><textPath startOffset="22.20632615414155" xlink:href="#id80">August</textPath></text><path d="M 88.54995079064634 117.60387380957326 l -26.201981031272215 40.28422578817765 a69.0558285467645,69.0558285467645 0 0,0 -0.9908699209816838,-0.6566945531413093 l 26.891525650993863 -39.82723321394502" fill="red" stroke="none" /><path d="M 87.95078237400918 117.19931262002967 l -30.059235498578904 42.907199828805396 a73.38879112852351,73.38879112852351 0 0,0 -1.0283959843490722,-0.7337332292261698 l 30.793358810776862 -42.383422337735006" fill="red" stroke="none" /><path d="M 86.51685102203217 116.09983520530335 l -40.44944693390351 48.29950561591003 a84.0,84.0 0 0,0 -1.1005380936917737,-0.937902439108194 l 41.274850504172335 -47.596078786578886" fill="red" stroke="none" /><path d="M 85.70375840098266 115.38237550388516 l -35.73111082605755 38.44572435982984 a73.48605531392144,73.48605531392144 0 0,0 -0.9191501620448308,-0.8691138486738439 l 36.3875968224932 -37.824975874410065" fill="red" stroke="none" /><path d="M 84.9287848128048 114.62390073753433 l -42.99266914774826 41.71664449410149 a80.90532554201666,80.90532554201666 0 0,0 -0.9612070800612309,-1.0078217805889351 l 43.70438277918845 -40.97041559693005" fill="red" stroke="none" /><path d="M 84.43433777217949 114.09645910891817 l -38.82862427373453 35.163689557131384 a73.38460772269997,73.38460772269997 0 0,0 -0.8398733827704356,-0.9436066489791929 l 39.42815650615331 -34.49010873841133" fill="red" stroke="none" /><path d="M 83.95833913139862 113.55231037782056 l -45.244897571541344 38.223778692541856 a80.22970550151068,80.22970550151068 0 0,0 -0.8821599965553508,-1.0626185443011116 l 45.89615356799023 -37.43929889112698" fill="red" stroke="none" /><path d="M 83.06392112726016 112.41649034213515 l -38.442295566728475 28.183524369508948 a68.6667718051728,68.6667718051728 0 0,0 -0.6906576094088277,-0.959263012847285 l 38.92173296851291 -27.517627751210526" fill="red" stroke="none" /><line stroke="#e1ed5e" stroke-width="0.3" x1="26.63291911575756" x2="22.317208475507996" y1="142.92168965132927" y2="145.44649492493687" /><path d="M 25.769776987707644 143.4266507060508 a86.0,86.0 0 0,1 -11.730757126820373,-40.83630448921669" fill="none" id="id81" stroke="none" /><text fill="#e1ed5e" style="font-size:6.75px; font-family:Arial;" text-anchor="middle"><textPath startOffset="21.46611528233685" xlink:href="#id81">September</textPath></text><line stroke="#e1ed5e" stroke-width="0.3" x1="15.007084014347285" x2="10.007500721073583" y1="101.09737516637583" y2="101.16192664675087" /><path d="M 14.007167355692545 101.11028546245083 a86.0,86.0 0 0,1 10.666146001902534,-42.60595125391555" fill="none" id="id82" stroke="none" /><text fill="#e1ed5e" style="font-size:6.75px; font-family:Arial;" text-anchor="middle"><textPath startOffset="22.20632615414155" xlink:href="#id82">October</textPath></text><line stroke="#e1ed5e" stroke-width="0.3" x1="26.266209847984243" x2="21.928928074336255" y1="57.711370442889674" y2="55.22380399835377" /><path d="M 25.398753493254645 57.213857153982495 a86.0,86.0 0 0,1 29.58750427330803,-30.492523968695096" fill="none" id="id83" stroke="none" /><text fill="#e1ed5e" style="font-size:6.75px; font-family:Arial;" text-anchor="middle"><textPath startOffset="21.46611528233685" xlink:href="#id83">November</textPath></text><line stroke="#e1ed5e" stroke-width="0.3" x1="56.762969772571076" x2="54.21961505331055" y1="26.818313649435495" y2="22.513508569990535" /><path d="M 56.25429882871897 25.957352633546506 a86.0,86.0 0 0,1 42.265352541879196,-11.944610805530505" fill="none" id="id84" stroke="none" /><text fill="#e1ed5e" style="font-size:6.75px; font-family:Arial;" text-anchor="middle"><textPath startOffset="22.20632615414155" xlink:href="#id84">December</textPath></text></svg>