<?xml version="1.0" encoding="utf-8" ?>
<svg baseProfile="full" height="200mm" version="1.1" viewBox="0,0,200,200" width="200mm" xmlns="http://www.w3.org/2000/svg" xmlns:ev="http://www.w3.org/2001/xml-events" xmlns:xlink="http://www.w3.org/1999/xlink"><defs /><rect fill="#1a1a1a" height="200" width="200" x="0" y="0" /><text alignment-baseline="middle" fill="#e1ed5e" style="dominant-baseline: central; font-size:9.0px; font-family:Arial;" text-anchor="middle" x="100.0" y="100.0">2025</text><line stroke="#e1ed5e" stroke-width="0.3" x1="100.0" x2="100.0" y1="15.0" y2="10.0" /><path d="M 100.0 14.0 a86.0,86.0 0 0,1 42.46469731375804,11.215312516191453" fill="none" id="id73" stroke="none" /><text fill="#e1ed5e" style="font-size:6.75px; font-family:Arial;" text-anchor="middle"><textPath startOffset="22.20632615414155" xlink:href="#id73">January</textPath></text><line stroke="#e1ed5e" stroke-width="0.3" x1="143.23703022742887" x2="145.7803849466894" y1="26.81831364943548" y2="22.513508569990506" /><path d="M 143.74570117128098 25.957352633546492 a86.0,86.0 0 0,1 28.547481713284135,27.462654790039103" fill="none" id="id74" stroke="none" /><text fill="#e1ed5e" style="font-size:6.75px; font-family:Arial;" text-anchor="middle"><textPath startOffset="19.985693538727396" xlink:href="#id74">February</textPath></text><line stroke="#e1ed5e" stroke-width="0.3" x1="172.23445277983987" x2="176.4835382374775" y1="55.19839476539836" y2="52.563006222186495" /><path d="M 173.08426987136738 54.67131705675599 a86.0,86.0 0 0,1 12.851231095245387,41.99856678651699" fill="none" id="id75" stroke="none" /><text fill="#e1ed5e" style="font-size:6.75px; font-family:Arial;" text-anchor="middle"><textPath startOffset="22.20632615414155" xlink:href="#id75">March</textPath></text><line stroke="#e1ed5e" stroke-width="0.3" x1="184.98032266829074" x2="189.97916517819016" y1="98.17113171792111" y2="98.06355123074" /><path d="M 185.9800911702706 98.14961562048488 a86.0,86.0 0 0,1 -9.607161424134198,41.387399972396054" fill="none" id="id76" stroke="none" /><text fill="#e1ed5e" style="font-size:6.75px; font-family:Arial;" text-anchor="middle"><textPath startOffset="21.466115282336823" xlink:href="#id76">April</textPath></text><line stroke="#e1ed5e" stroke-width="0.3" x1="174.80103733775053" x2="179.2010983576182" y1="140.37084112569926" y2="142.7455964860345" /><path d="M 175.68104954172406 140.8457921977663 a86.0,86.0 0 0,1 -30.038265399797805,32.042727171017184" fill="none" id="id77" stroke="none" /><text fill="#e1ed5e" style="font-size:6.75px; font-family:Arial;" text-anchor="middle"><textPath startOffset="22.206326154141568" xlink:href="#id77">May</textPath></text><line stroke="#e1ed5e" stroke-width="0.3" x1="143.8653032363475" x2="146.44561519142675" y1="172.8068346515853" y2="177.08958963109032" /><path d="M 144.38136562736335 173.6633856474863 a86.0,86.0 0 0,1 -40.68145358897372,12.25698825130547" fill="none" id="id78" stroke="none" /><text fill="#e1ed5e" style="font-size:6.75px; font-family:Arial;" text-anchor="middle"><textPath startOffset="21.466115282336833" xlink:href="#id78">June</textPath></text><path d="M 109.57404056367764 118.69057910512821 l 11.813519553950297 23.06252206312686 a46.91214325685506,46.91214325685506 0 0,0 -0.721879798841869,0.3619655171181119 l -11.414785847425668 -23.26245542115427" fill="red" stroke="none" /><path d="M 108.59647513512805 119.15986991738527 l 13.186861861969915 29.390948490204536 a53.21367999655632,53.21367999655632 0 0,0 -0.838949965344669,0.36777101034029286 l -12.678991221967491 -29.613584053839283" fill="red" stroke="none" /><path d="M 107.93186726928326 119.44442032107085 l 14.230652830978306 34.885454546162954 a58.67633765227497,58.67633765227497 0 0,0 -0.9384831024976306,0.37344179456769255 l -13.628048652438808 -35.12524318513671" fill="red" stroke="none" /><path d="M 106.91757812671514 119.82793768551818 l 12.368323579322457 35.45147517135222 a58.547070724463005,58.547070724463005 0 0,0 -0.9544016360404038,0.3237848533239751 l -11.756252210344826 -35.659123011574316" fill="red" stroke="none" /><path d="M 105.88484417918355 120.15858648285463 l 10.206712654111472 34.96318568151085 a57.422538848951824,57.422538848951824 0 0,0 -0.9512148339929889,0.268822813514582 l -9.603366652013877 -35.133697288363955" fill="red" stroke="none" /><path d="M 104.83641907484287 120.43548508189849 l 10.46853328566995 44.23304773183177 a66.45495243424733,66.45495243424733 0 0,0 -1.1154300812441884,0.2538682549626159 l -9.7055830550329 -44.40669272037207" fill="red" stroke="none" /><path d="M 104.13013068566511 120.58985236759428 l 8.915755832956798 44.44752728606108 a66.33291722267658,66.33291722267658 0 0,0 -1.1214444682849782,0.21492750140714595 l -8.149343750100114 -44.59441198581669" fill="red" stroke="none" /><path d="M 103.06178313531738 120.77559828337769 l 6.825518703965233 46.31426472814618 a67.81451508759847,67.81451508759847 0 0,0 -1.1563066169237297,0.16025356081573963 l -6.027283495854673 -46.42489285445452" fill="red" stroke="none" /><path d="M 102.34483914955558 120.86867818915974 l 5.062736949051232 45.05751627617727 a66.34105290344797,66.34105290344797 0 0,0 -1.1359085776639586,0.11774156852483088 l -4.2863957747816706 -45.13798721315786" fill="red" stroke="none" /><path d="M 101.62511606390274 120.93702456842531 l 3.6435870254562364 46.94179865896572 a68.08299255305411,68.08299255305411 0 0,0 -1.1692029748686705,0.08063508262285166 l -2.8350212898086355 -46.99756208610486" fill="red" stroke="none" /><path d="M 100.90346689309514 120.98055641714683 l 2.183744544538993 50.71151579265687 a71.75851233265895,71.75851233265895 0 0,0 -1.2345185761853883,0.0425193158856624 l -1.3105056166789526 -50.74159190696863" fill="red" stroke="none" /><line stroke="#e1ed5e" stroke-width="0.3" x1="102.19456741930631" x2="102.32365962044197" y1="184.97166512339345" y2="189.96999836594603" /><path d="M 102.22038585953345 185.97133177190398 a86.0,86.0 0 0,1 -42.740103519485714,-10.115201625700543" fill="none" id="id79" stroke="none" /><text fill="#e1ed5e" style="font-size:6.75px; font-family:Arial;" text-anchor="middle"><textPath startOffset="22.20632615414155" xlink:href="#id79">July</textPath></text><path d="M 100.18074693466247 120.99922214144158 l 0.3495976073000919 40.616333712771485 a61.617838233395034,61.617838233395034 0 0,0 -1.0606890839250667,0.0 l 0.3495976073000639 -40.616333712771485" fill="red" stroke="none" /><path d="M 99.45781275523022 120.99299961872073 l -1.1691182322006197 45.267200288432605 a66.28229520898799,66.28229520898799 0 0,0 -1.1403068715857463,-0.03927447428888551 l 1.9481454554610091 -45.240369015717626" fill="red" stroke="none" /><path d="M 98.37488393609728 120.93702456842531 l -3.518018460404963 45.32404827799532 a66.46037622142826,66.46037622142826 0 0,0 -1.139813435294396,-0.09834789928201056 l 4.297676213440901 -45.25677612643464" fill="red" stroke="none" /><path d="M 97.65516085044442 120.86867818915974 l -5.332841101442884 47.46139828014572 a68.76006198613919,68.76006198613919 0 0,0 -1.1750524112434275,-0.1422824827819017 l 6.149020935737701 -47.36257026863847" fill="red" stroke="none" /><path d="M 96.22490169976321 120.6578951692458 l -6.512779892251316 35.63889297029975 a57.22909043949895,57.22909043949895 0 0,0 -0.967532404506072,-0.18542988807011457 l 7.125279911329082 -35.52150588388117" fill="red" stroke="none" /><path d="M 95.51606077576429 120.51570834832081 l -10.258765002286951 46.93770817929712 a69.04571477766777,69.04571477766777 0 0,0 -1.1589153918997785,-0.2637653700918044 l 11.065200543579593 -46.75416607562762" fill="red" stroke="none" /><path d="M 94.11515582081647 120.15858648285463 l -13.205751448711506 45.23641995341118 a68.12457492144118,68.12457492144118 0 0,0 -1.1228390588538675,-0.33830219764342084 l 13.98246548200562 -45.002402386662034" fill="red" stroke="none" /><path d="M 93.42475214034765 119.94407469862007 l -14.151316882049773 42.9238451543888 a66.1964185786234,66.1964185786234 0 0,0 -1.079097030981873,-0.36608830151251986 l 14.888083645968871 -42.67389386597816" fill="red" stroke="none" /><path d="M 92.7421414339146 119.70592522655815 l -16.286833322224524 44.220635701678916 a68.12457492144118,68.12457492144118 0 0,0 -1.0969022609041177,-0.4147545768784774 l 17.045605803888925 -43.9337328746938" fill="red" stroke="none" /><path d="M 92.06813273071674 119.44442032107085 l -16.635718176629858 40.7813047782504 a65.04386380267746,65.04386380267746 0 0,0 -1.0330469029882312,-0.43181368923166674 l 17.335236539115552 -40.48890604599876" fill="red" stroke="none" /><path d="M 91.07499286063937 119.00905698771935 l -18.996807198138917 40.46062764718516 a65.69833412250871,65.69833412250871 0 0,0 -1.0195359440006202,-0.48943921021758874 l 19.690455810139778 -40.12763416046801" fill="red" stroke="none" /><line stroke="#e1ed5e" stroke-width="0.3" x1="58.666819895761336" x2="56.23545636021788" y1="174.27360380694188" y2="178.64263932499728" /><path d="M 58.180547188652646 175.14741091055294 a86.0,86.0 0 0,1 -31.652253787137756,-30.449443065178592" fill="none" id="id80" stroke="none" /><text fill="#e1ed5e" style="font-size:6.75px; font-family:Arial;" text-anchor="middle"><textPath startOffset="22.20632615414155" xlink:href="#id80">August</textPath></text><path d="M 88.54995079064634 117.60387380957326 l -22.64725199606525 34.819008982656 a62.53626619603116,62.53626619603116 0 0,0 -0.8973218691046205,-0.5946960053765481 l 23.24324856390983 -34.42401495618813" fill="red" stroke="none" /><path d="M 87.95078237400918 117.19931262002967 l -25.98120654819561 37.08613351825262 a66.28139124445784,66.28139124445784 0 0,0 -0.9288001007333332,-0.6626742107010594 l 26.61573397677783 -36.633415045707345" fill="red" stroke="none" /><path d="M 86.51685102203217 116.09983520530335 l -34.96181516658028 41.746884468902024 a75.45301536739701,75.45301536739701 0 0,0 -0.9885585439968002,-0.842471037513687 l 35.67523918715414 -41.138889041165385" fill="red" stroke="none" /><path d="M 85.70375840098266 115.38237550388516 l -30.88359883976949 33.229930466294036 a66.36545994576213,66.36545994576213 0 0,0 -0.8300870553296794,-0.7848991222358377 l 31.451021729489987 -32.69339670731227" fill="red" stroke="none" /><path d="M 84.9287848128048 114.62390073753433 l -37.160007520440494 36.05709656688168 a72.77818432267227,72.77818432267227 0 0,0 -0.864651437668638,-0.9065835755646726 l 37.77516550948809 -35.41210587473451" fill="red" stroke="none" /><path d="M 84.43433777217949 114.09645910891817 l -33.56088371861192 30.393157584584966 a66.27777538633723,66.27777538633723 0 0,0 -0.7585369894810161,-0.8522243488773441 l 34.079079557741274 -29.810959065966756" fill="red" stroke="none" /><path d="M 83.95833913139862 113.55231037782056 l -39.106684170784824 33.03809537372958 a72.19422323619301,72.19422323619301 0 0,0 -0.7938064252293319,-0.9561909759315819 l 39.669586595907695 -32.36004314068424" fill="red" stroke="none" /><path d="M 83.06392112726016 112.41649034213515 l -33.22696684528705 24.35996643809967 a62.19999139081399,62.19999139081399 0 0,0 -0.6256140521811028,-0.8689232007282546 l 33.64136068984376 -23.784409631920276" fill="red" stroke="none" /><path d="M 82.6465618267979 111.8261652097733 l -52.06031451960629 35.47849562931989 a84.0,84.0 0 0,0 -0.8039875783570785,-1.2018523431767165 l 52.6633052033741 -34.57710637193735" fill="red" stroke="none" /><line stroke="#e1ed5e" stroke-width="0.3" x1="26.63291911575756" x2="22.317208475507996" y1="142.92168965132927" y2="145.44649492493687" /><path d="M 25.769776987707644 143.4266507060508 a86.0,86.0 0 0,1 -11.730757126820373,-40.83630448921669" fill="none" id="id81" stroke="none" /><text fill="#e1ed5e" style="font-size:6.75px; font-family:Arial;" text-anchor="middle"><textPath startOffset="21.46611528233685" xlink:href="#id81">September</textPath></text><line stroke="#e1ed5e" stroke-width="0.3" x1="15.007084014347285" x2="10.007500721073583" y1="101.09737516637583" y2="101.16192664675087" /><path d="M 14.007167355692545 101.11028546245083 a86.0,86.0 0 0,1 10.666146001902534,-42.60595125391555" fill="none" id="id82" stroke="none" /><text fill="#e1ed5e" style="font-size:6.75px; font-family:Arial;" text-anchor="middle"><textPath startOffset="22.20632615414155" xlink:href="#id82">October</textPath></text><line stroke="#e1ed5e" stroke-width="0.3" x1="26.266209847984243" x2="21.928928074336255" y1="57.711370442889674" y2="55.22380399835377" /><path d="M 25.398753493254645 57.213857153982495 a86.0,86.0 0 0,1 29.58750427330803,-30.492523968695096" fill="none" id="id83" stroke="none" /><text fill="#e1ed5e" style="font-size:6.75px; font-family:Arial;" text-anchor="middle"><textPath startOffset="21.46611528233685" xlink:href="#id83">November</textPath></text><line stroke="#e1ed5e" stroke-width="0.3" x1="56.762969772571076" x2="54.21961505331055" y1="26.818313649435495" y2="22.513508569990535" /><path d="M 56.25429882871897 25.957352633546506 a86.0,86.0 0 0,1 42.265352541879196,-11.944610805530505" fill="none" id="id84" stroke="none" /><text fill="#e1ed5e" style="font-size:6.75px; font-family:Arial;" text-anchor="middle"><textPath startOffset="22.20632615414155" xlink:href="#id84">December</textPath></text></svg>