<?xml version="1.0" encoding="utf-8" ?>
<svg baseProfile="full" height="200mm" version="1.1" viewBox="0,0,200,200" width="200mm" xmlns="http://www.w3.org/2000/svg" xmlns:ev="http://www.w3.org/2001/xml-events" xmlns:xlink="http://www.w3.org/1999/xlink"><defs /><rect fill="#1a1a1a" height="200" width="200" x="0" y="0" /><rect fill="#1a1a1a" height="200" width="180" x="10" y="0" /><text alignment-baseline="middle" fill="#e1ed5e" style="dominant-baseline: central; font-size:9.0px; font-family:Arial;" text-anchor="middle" x="100.0" y="100.0">2025</text><line stroke="#e1ed5e" stroke-width="0.3" x1="100.0" x2="100.0" y1="15.0" y2="10.0" /><path d="M 100.0 14.0 a86.0,86.0 0 0,1 42.46469731375804,11.215312516191453" fill="none" id="id73" stroke="none" /><text fill="#e1ed5e" style="font-size:6.75px; font-family:Arial;" text-anchor="middle"><textPath startOffset="22.20632615414155" xlink:href="#id73">January</textPath></text><line stroke="#e1ed5e" stroke-width="0.3" x1="143.23703022742887" x2="145.7803849466894" y1="26.81831364943548" y2="22.513508569990506" /><path d="M 143.74570117128098 25.957352633546492 a86.0,86.0 0 0,1 28.547481713284135,27.462654790039103" fill="none" id="id74" stroke="none" /><text fill="#e1ed5e" style="font-size:6.75px; font-family:Arial;" text-anchor="middle"><textPath startOffset="19.985693538727396" xlink:href="#id74">February</textPath></text><line stroke="#e1ed5e" stroke-width="0.3" x1="172.23445277983987" x2="176.4835382374775" y1="55.19839476539836" y2="52.563006222186495" /><path d="M 173.08426987136738 54.67131705675599 a86.0,86.0 0 0,1 12.851231095245387,41.99856678651699" fill="none" id="id75" stroke="none" /><text fill="#e1ed5e" style="font-size:6.75px; font-family:Arial;" text-anchor="middle"><textPath startOffset="22.20632615414155" xlink:href="#id75">March</textPath></text><line stroke="#e1ed5e" stroke-width="0.3" x1="184.98032266829074" x2="189.97916517819016" y1="98.17113171792111" y2="98.06355123074" /><path d="M 185.9800911702706 98.14961562048488 a86.0,86.0 0 0,1 -9.607161424134198,41.387399972396054" fill="none" id="id76" stroke="none" /><text fill="#e1ed5e" style="font-size:6.75px; font-family:Arial;" text-anchor="middle"><textPath startOffset="21.466115282336823" xlink:href="#id76">April</textPath></text><line stroke="#e1ed5e" stroke-width="0.3" x1="174.80103733775053" x2="179.2010983576182" y1="140.37084112569926" y2="142.7455964860345" /><path d="M 175.68104954172406 140.8457921977663 a86.0,86.0 0 0,1 -30.038265399797805,32.042727171017184" fill="none" id="id77" stroke="none" /><text fill="#e1ed5e" style="font-size:6.75px; font-family:Arial;" text-anchor="middle"><textPath startOffset="22.206326154141568" xlink:href="#id77">May</textPath></text><line stroke="#e1ed5e" stroke-width="0.3" x1="143.8653032363475" x2="146.44561519142675" y1="172.8068346515853" y2="177.08958963109032" /><path d="M 144.38136562736335 173.6633856474863 a86.0,86.0 0 0,1 -40.68145358897372,12.25698825130547" fill="none" id="id78" stroke="none" /><text fill="#e1ed5e" style="font-size:6.75px; font-family:Arial;" text-anchor="middle"><textPath startOffset="21.466115282336833" xlink:href="#id78">June</textPath></text><path d="M 109.57404056367764 118.69057910512821 l 9.443688126831892 18.436103211047005 a41.714080888256746,41.714080888256746 0 0,0 -0.6418924873164481,0.32185821860991704 l -9.124941731832683 -18.595929270566224" fill="red" stroke="none" /><path d="M 108.59647513512805 119.15986991738527 l 10.54153338700958 23.49502618806433 a46.75150833887729,46.75150833887729 0 0,0 -0.7370694209318043,0.3231095736629042 l -10.13554329142002 -23.67300031502169" fill="red" stroke="none" /><path d="M 107.93186726928326 119.44442032107085 l 11.375936406016963 27.88731600199278 a51.11833864788602,51.11833864788602 0 0,0 -0.8175986942656875,0.3253393937623415 l -10.89421663570941 -28.079002240161188" fill="red" stroke="none" /><path d="M 106.91757812671514 119.82793768551818 l 9.887196614137322 28.339791001778465 a51.01500309696956,51.01500309696956 0 0,0 -0.8316180778282753,0.28213000395547844 l -9.39790880337182 -28.505783992632065" fill="red" stroke="none" /><path d="M 105.88484417918355 120.15858648285463 l 8.159212050686964 27.949454012313733 a50.11605606661925,50.11605606661925 0 0,0 -0.8301816134809012,0.23461761642970344 l -7.676899269101456 -28.085760422081957" fill="red" stroke="none" /><path d="M 104.83641907484287 120.43548508189849 l 8.368510590238763 35.359750815243416 a57.336537358629066,57.336537358629066 0 0,0 -0.962379720119055,0.21903449105973097 l -7.758610720726845 -35.49856203988083" fill="red" stroke="none" /><path d="M 104.13013068566511 120.58985236759428 l 7.1272254739081236 35.53120505548685 a57.238982817554074,57.238982817554074 0 0,0 -0.9676996480574023,0.1854619406947749 l -6.5145582112790175 -35.64862419453009" fill="red" stroke="none" /><path d="M 103.06178313531738 120.77559828337769 l 5.4562968850846385 37.02346874009189 a58.42336720882751,58.42336720882751 0 0,0 -0.9961779716225714,0.13806118967253808 l -4.818190322275237 -37.111904495257036" fill="red" stroke="none" /><path d="M 102.34483914955558 120.86867818915974 l 4.047135030054685 36.018828219536395 a57.245486453625745,57.245486453625745 0 0,0 -0.9801719485799694,0.10159883015161708 l -3.426530484869113 -36.08315641814377" fill="red" stroke="none" /><path d="M 101.62511606390274 120.93702456842531 l 2.9126713147796726 37.52511727121765 a58.63798719919249,58.63798719919249 0 0,0 -1.007001991285581,0.0694487531369903 l -2.2663065627151613 -37.56969436887093" fill="red" stroke="none" /><path d="M 100.90346689309514 120.98055641714683 l 1.745678104913354 40.53861657380692 a61.576185451125234,61.576185451125234 0 0,0 -1.0593439345237579,0.03648594703431345 l -1.0476138187149437 -40.562659319267325" fill="red" stroke="none" /><line stroke="#e1ed5e" stroke-width="0.3" x1="102.19456741930631" x2="102.32365962044197" y1="184.97166512339345" y2="189.96999836594603" /><path d="M 102.22038585953345 185.97133177190398 a86.0,86.0 0 0,1 -42.740103519485714,-10.115201625700543" fill="none" id="id79" stroke="none" /><text fill="#e1ed5e" style="font-size:6.75px; font-family:Arial;" text-anchor="middle"><textPath startOffset="22.20632615414155" xlink:href="#id79">July</textPath></text><path d="M 100.18074693466247 120.99922214144158 l 0.27946716117507403 32.46856169214038 a53.469764400908446,53.469764400908446 0 0,0 -0.9204281916750366,0.0 l 0.27946716117505166 -32.46856169214038" fill="red" stroke="none" /><path d="M 99.45781275523022 120.99299961872073 l -0.9345892151677847 36.18644891952162 a57.198515748663716,57.198515748663716 0 0,0 -0.9840314121147438,-0.03389203148518437 l 1.5573409789571715 -36.16500008961034" fill="red" stroke="none" /><path d="M 98.37488393609728 120.93702456842531 l -2.8122922227180274 36.231893012758675 a57.34087311601018,57.34087311601018 0 0,0 -0.9834114894472541,-0.08485288128925256 l 3.435548029906823 -36.17811587919076" fill="red" stroke="none" /><path d="M 97.65516085044442 120.86867818915974 l -4.263055388530419 37.94048347523797 a59.17923424560115,59.17923424560115 0 0,0 -1.011324014074493,-0.12245725402768295 l 4.915506825656301 -37.86148069248494" fill="red" stroke="none" /><path d="M 96.22490169976321 120.6578951692458 l -5.206294522156763 28.48961216511551 a49.96141405335964,49.96141405335964 0 0,0 -0.844662857654072,-0.1618816469839432 l 5.69592499438253 -28.3957733197831" fill="red" stroke="none" /><path d="M 95.51606077576429 120.51570834832081 l -8.200822524195184 37.52184735541458 a59.40758413433966,59.40758413433966 0 0,0 -0.997141732409666,-0.22694621188167238 l 8.845484405997713 -37.37512440995522" fill="red" stroke="none" /><path d="M 94.11515582081647 120.15858648285463 l -10.55663365964363 36.16184322237486 a58.67122800578101,58.67122800578101 0 0,0 -0.9670276330058627,-0.2913574931760328 l 11.177536267089739 -35.9747703600931" fill="red" stroke="none" /><path d="M 93.42475214034765 119.94407469862007 l -11.312515513072592 34.31317864174736 a57.12986625679613,57.12986625679613 0 0,0 -0.9312991606166472,-0.31594723933209573 l 11.901484406626466 -34.113368415517144" fill="red" stroke="none" /><path d="M 92.7421414339146 119.70592522655815 l -13.019640232224472 35.349828679740185 a58.67122800578101,58.67122800578101 0 0,0 -0.9446899701579923,-0.3572009128062767 l 13.626200423142746 -35.120479516827274" fill="red" stroke="none" /><path d="M 92.06813273071674 119.44442032107085 l -13.298537621112896 32.60043901161484 a56.20851781331009,56.20851781331009 0 0,0 -0.892721186194486,-0.3731575282311284 l 13.857730266804845 -32.36669644036374" fill="red" stroke="none" /><path d="M 91.07499286063937 119.00905698771935 l -15.185984309374588 32.34409078267618 a56.73169920396411,56.73169920396411 0 0,0 -0.8803877187329836,-0.4226396060653984 l 15.740484696107814 -32.07789690011122" fill="red" stroke="none" /><line stroke="#e1ed5e" stroke-width="0.3" x1="58.666819895761336" x2="56.23545636021788" y1="174.27360380694188" y2="178.64263932499728" /><path d="M 58.180547188652646 175.14741091055294 a86.0,86.0 0 0,1 -31.652253787137756,-30.449443065178592" fill="none" id="id80" stroke="none" /><text fill="#e1ed5e" style="font-size:6.75px; font-family:Arial;" text-anchor="middle"><textPath startOffset="22.20632615414155" xlink:href="#id80">August</textPath></text><path d="M 88.54995079064634 117.60387380957326 l -18.104137704592407 27.834199640157884 a54.20395265077653,54.20395265077653 0 0,0 -0.7777629696180992,-0.5154588861444072 l 18.58057537295047 -27.518442732922157" fill="red" stroke="none" /><path d="M 87.95078237400918 117.19931262002967 l -20.76928985299025 29.646531431804497 a57.197793122433524,57.197793122433524 0 0,0 -0.8015117820611939,-0.5718573750429604 l 21.276528962900333 -29.28462979491732" fill="red" stroke="none" /><path d="M 86.51685102203217 116.09983520530335 l -27.948358427249655 33.37232019558152 a64.52955885389186,64.52955885389186 0 0,0 -0.8454433058075388,-0.7205051267100111 l 28.51866720963425 -32.88629067864856" fill="red" stroke="none" /><path d="M 85.70375840098266 115.38237550388516 l -24.688245898695314 26.563895574630426 a57.26499736184074,57.26499736184074 0 0,0 -0.7162601309838079,-0.6772686605484234 l 25.14184186406994 -26.134992277336075" fill="red" stroke="none" /><path d="M 84.9287848128048 114.62390073753433 l -29.70558606274299 28.82392272528372 a62.39130783877405,62.39130783877405 0 0,0 -0.7412486931748962,-0.7771962913206555 l 30.197341307296846 -28.308319317380562" fill="red" stroke="none" /><path d="M 84.43433777217949 114.09645910891817 l -26.828458500621924 24.29618879519258 a57.19490261751279,57.19490261751279 0 0,0 -0.6545851756830614,-0.7354333840897291 l 27.242702525953323 -23.83078124136199" fill="red" stroke="none" /><path d="M 83.95833913139862 113.55231037782056 l -31.261752883789168 26.410543241510126 a61.924491294074464,61.924491294074464 0 0,0 -0.6808863211599845,-0.8201714363049387 l 31.71173520484269 -25.86851054809143" fill="red" stroke="none" /><path d="M 83.06392112726016 112.41649034213515 l -26.561526465882757 19.4732759167085 a53.935135693147664,53.935135693147664 0 0,0 -0.5424852647312588,-0.753464585609636 l 26.892791522989622 -19.013177725647726" fill="red" stroke="none" /><path d="M 82.6465618267979 111.8261652097733 l -41.616841777143456 28.361391065749704 a71.36198986029225,71.36198986029225 0 0,0 -0.6830256358871281,-1.021030651516016 l 42.09887051844131 -27.640823500027867" fill="red" stroke="none" /><path d="M 82.05923443525364 110.91462005526583 l -43.33836374407085 26.365751917127202 a71.72836135899612,71.72836135899612 0 0,0 -0.6326411561197164,-1.0603429671079587 l 43.7857857758888 -25.615846856133132" fill="red" stroke="none" /><line stroke="#e1ed5e" stroke-width="0.3" x1="26.63291911575756" x2="22.317208475507996" y1="142.92168965132927" y2="145.44649492493687" /><path d="M 25.769776987707644 143.4266507060508 a86.0,86.0 0 0,1 -11.730757126820373,-40.83630448921669" fill="none" id="id81" stroke="none" /><text fill="#e1ed5e" style="font-size:6.75px; font-family:Arial;" text-anchor="middle"><textPath startOffset="21.46611528233685" xlink:href="#id81">September</textPath></text><path d="M 81.69416730710424 110.29060199501025 l -45.73455564801231 25.709625860122173 a73.46555481636116,73.46555481636116 0 0,0 -0.6101964691764831,-1.1076838351009899 l 46.17032852664031 -24.918571506623362" fill="red" stroke="none" /><path d="M 81.35079622478065 109.6543875284942 l -48.273120216902285 24.99020416103962 a75.35811291321602,75.35811291321602 0 0,0 -0.586434431174975,-1.1570907677571436 l 48.69613331786353 -24.155559181579793" fill="red" stroke="none" /><path d="M 80.87730276802145 108.67885076344099 l -57.36809169593562 26.03655229032298 a84.0,84.0 0 0,0 -0.5862356610748805,-1.3218066540292166 l 57.80776844174178 -25.045197299801067" fill="red" stroke="none" /><path d="M 80.45479744820244 107.68017299344265 l -37.993899108311226 14.929480371151234 a61.82187836938818,61.82187836938818 0 0,0 -0.3806629771160093,-0.9937909138863055 l 38.245256365020744 -14.273265890431771" fill="red" stroke="none" /><line stroke="#e1ed5e" stroke-width="0.3" x1="15.007084014347285" x2="10.007500721073583" y1="101.09737516637583" y2="101.16192664675087" /><path d="M 14.007167355692545 101.11028546245083 a86.0,86.0 0 0,1 10.666146001902534,-42.60595125391555" fill="none" id="id82" stroke="none" /><text fill="#e1ed5e" style="font-size:6.75px; font-family:Arial;" text-anchor="middle"><textPath startOffset="22.20632615414155" xlink:href="#id82">October</textPath></text><line stroke="#e1ed5e" stroke-width="0.3" x1="26.266209847984243" x2="21.928928074336255" y1="57.711370442889674" y2="55.22380399835377" /><path d="M 25.398753493254645 57.213857153982495 a86.0,86.0 0 0,1 29.58750427330803,-30.492523968695096" fill="none" id="id83" stroke="none" /><text fill="#e1ed5e" style="font-size:6.75px; font-family:Arial;" text-anchor="middle"><textPath startOffset="21.46611528233685" xlink:href="#id83">November</textPath></text><line stroke="#e1ed5e" stroke-width="0.3" x1="56.762969772571076" x2="54.21961505331055" y1="26.818313649435495" y2="22.513508569990535" /><path d="M 56.25429882871897 25.957352633546506 a86.0,86.0 0 0,1 42.265352541879196,-11.944610805530505" fill="none" id="id84" stroke="none" /><text fill="#e1ed5e" style="font-size:6.75px; font-family:Arial;" text-anchor="middle"><textPath startOffset="22.20632615414155" xlink:href="#id84">December</textPath></text></svg>