<?xml version="1.0" encoding="utf-8" ?>
<svg baseProfile="full" height="200mm" version="1.1" viewBox="0,0,200,200" width="200mm" xmlns="http://www.w3.org/2000/svg" xmlns:ev="http://www.w3.org/2001/xml-events" xmlns:xlink="http://www.w3.org/1999/xlink"><defs /><rect fill="#1a1a1a" height="200" width="200" x="0" y="0" /><text alignment-baseline="middle" fill="#e1ed5e" style="dominant-baseline: central; font-size:9.0px; font-family:Arial;" text-anchor="middle" x="100.0" y="100.0">2025</text><line stroke="#e1ed5e" stroke-width="0.3" x1="100.0" x2="100.0" y1="15.0" y2="10.0" /><path d="M 100.0 14.0 a86.0,86.0 0 0,1 42.46469731375804,11.215312516191453" fill="none" id="id73" stroke="none" /><text fill="#e1ed5e" style="font-size:6.75px; font-family:Arial;" text-anchor="middle"><textPath startOffset="22.20632615414155" xlink:href="#id73">January</textPath></text><line stroke="#e1ed5e" stroke-width="0.3" x1="143.23703022742887" x2="145.7803849466894" y1="26.81831364943548" y2="22.513508569990506" /><path d="M 143.74570117128098 25.957352633546492 a86.0,86.0 0 0,1 28.547481713284135,27.462654790039103" fill="none" id="id74" stroke="none" /><text fill="#e1ed5e" style="font-size:6.75px; font-family:Arial;" text-anchor="middle"><textPath startOffset="19.985693538727396" xlink:href="#id74">February</textPath></text><line stroke="#e1ed5e" stroke-width="0.3" x1="172.23445277983987" x2="176.4835382374775" y1="55.19839476539836" y2="52.563006222186495" /><path d="M 173.08426987136738 54.67131705675599 a86.0,86.0 0 0,1 12.851231095245387,41.99856678651699" fill="none" id="id75" stroke="none" /><text fill="#e1ed5e" style="font-size:6.75px; font-family:Arial;" text-anchor="middle"><textPath startOffset="22.20632615414155" xlink:href="#id75">March</textPath></text><line stroke="#e1ed5e" stroke-width="0.3" x1="184.98032266829074" x2="189.97916517819016" y1="98.17113171792111" y2="98.06355123074" /><path d="M 185.9800911702706 98.14961562048488 a86.0,86.0 0 0,1 -9.607161424134198,41.387399972396054" fill="none" id="id76" stroke="none" /><text fill="#e1ed5e" style="font-size:6.75px; font-family:Arial;" text-anchor="middle"><textPath startOffset="21.466115282336823" xlink:href="#id76">April</textPath></text><line stroke="#e1ed5e" stroke-width="0.3" x1="174.80103733775053" x2="179.2010983576182" y1="140.37084112569926" y2="142.7455964860345" /><path d="M 175.68104954172406 140.8457921977663 a86.0,86.0 0 0,1 -30.038265399797805,32.042727171017184" fill="none" id="id77" stroke="none" /><text fill="#e1ed5e" style="font-size:6.75px; font-family:Arial;" text-anchor="middle"><textPath startOffset="22.206326154141568" xlink:href="#id77">May</textPath></text><line stroke="#e1ed5e" stroke-width="0.3" x1="143.8653032363475" x2="146.44561519142675" y1="172.8068346515853" y2="177.08958963109032" /><path d="M 144.38136562736335 173.6633856474863 a86.0,86.0 0 0,1 -40.68145358897372,12.25698825130547" fill="none" id="id78" stroke="none" /><text fill="#e1ed5e" style="font-size:6.75px; font-family:Arial;" text-anchor="middle"><textPath startOffset="21.466115282336833" xlink:href="#id78">June</textPath></text><path d="M 109.57404056367764 118.69057910512821 l 10.945051623485615 21.36708653132022 a45.00721853688367,45.00721853688367 0 0,0 -0.6925669902981897,0.34726746639038775 l -10.575630725504665 -21.552321838619907" fill="red" stroke="none" /><path d="M 108.59647513512805 119.15986991738527 l 12.217433015783326 27.230280275019933 a50.845499381837996,50.845499381837996 0 0,0 -0.8016139824775486,0.3514040126547425 l -11.746898358648023 -27.43654884096913" fill="red" stroke="none" /><path d="M 107.93186726928326 119.44442032107085 l 13.18448995319744 32.32085909476802 a55.90657112851122,55.90657112851122 0 0,0 -0.8941828072777721,0.3558137928458136 l -12.626186069877802 -32.5430197320199" fill="red" stroke="none" /><path d="M 106.91757812671514 119.82793768551818 l 11.459069369923029 32.84526885549699 a55.78680722651317,55.78680722651317 0 0,0 -0.9094053626872233,0.3085196743703545 l -10.891994274298579 -33.03765151676547" fill="red" stroke="none" /><path d="M 105.88484417918355 120.15858648285463 l 9.45636873034831 32.39287584517416 a54.744945030110465,54.744945030110465 0 0,0 -0.9068600038000998,0.2562876954536479 l -8.897377558443603 -32.550852333966326" fill="red" stroke="none" /><path d="M 104.83641907484287 120.43548508189849 l 9.698941683769537 40.9812663091681 a63.11334299349932,63.11334299349932 0 0,0 -1.059341986174557,0.24110278713192768 l -8.992079548202119 -41.14214582987771" fill="red" stroke="none" /><path d="M 104.13013068566511 120.58985236759428 l 8.260316276488018 41.17997845270004 a63.00027916993472,63.00027916993472 0 0,0 -1.06510187601669,0.20412930950242872 l -7.550246785899622 -41.31606496055094" fill="red" stroke="none" /><path d="M 103.06178313531738 120.77559828337769 l 6.323742406384339 42.90948315938865 a64.37295773898941,64.37295773898941 0 0,0 -1.0976245555747888,0.15212076182493722 l -5.584189259622719 -43.01197848670619" fill="red" stroke="none" /><path d="M 102.34483914955558 120.86867818915974 l 4.690551110567613 41.74512425502336 a63.00781675817237,63.00781675817237 0 0,0 -1.0788360507279062,0.11182576775242539 l -3.9712824632341044 -41.819679391231546" fill="red" stroke="none" /><path d="M 101.62511606390274 120.93702456842531 l 3.3757296380777344 43.490884090494895 a64.62169815083152,64.62169815083152 0 0,0 -1.1097614673758658,0.07653564824667114 l -2.6266054099229383 -43.54254808325785" fill="red" stroke="none" /><path d="M 100.90346689309514 120.98055641714683 l 2.023207111422783 46.983471413499 a68.02701301463648,68.02701301463648 0 0,0 -1.1703226351691296,0.040308277876755394 l -1.2141641245790014 -47.01133648980184" fill="red" stroke="none" /><line stroke="#e1ed5e" stroke-width="0.3" x1="102.19456741930631" x2="102.32365962044197" y1="184.97166512339345" y2="189.96999836594603" /><path d="M 102.22038585953345 185.97133177190398 a86.0,86.0 0 0,1 -42.740103519485714,-10.115201625700543" fill="none" id="id79" stroke="none" /><text fill="#e1ed5e" style="font-size:6.75px; font-family:Arial;" text-anchor="middle"><textPath startOffset="22.20632615414155" xlink:href="#id79">July</textPath></text><path d="M 100.18074693466247 120.99922214144158 l 0.32389702678124116 37.630434115153385 a58.63182803132021,58.63182803132021 0 0,0 -1.0092879228873675,0.0 l 0.32389702678121524 -37.630434115153385" fill="red" stroke="none" /><path d="M 99.45781275523022 120.99299961872073 l -1.083170798249974 41.93939339964816 a62.95337862090052,62.95337862090052 0 0,0 -1.083036880431047,-0.03730197999706206 l 1.804928030355664 -41.914534621225" fill="red" stroke="none" /><path d="M 98.37488393609728 120.93702456842531 l -3.2593922146285457 41.99206222349983 a63.11836805232442,63.11836805232442 0 0,0 -1.0824970909012086,-0.0934024039131669 l 3.9817336232712957 -41.92973556730799" fill="red" stroke="none" /><path d="M 97.65516085044442 120.86867818915974 l -4.9407986238631665 43.97228547569489 a65.24899299416401,65.24899299416401 0 0,0 -1.1150511551960707,-0.13501716627451577 l 5.696977202110626 -43.880722780695024" fill="red" stroke="none" /><path d="M 96.22490169976321 120.6578951692458 l -6.033994510065683 33.018908681907135 a54.565717932015474,54.565717932015474 0 0,0 -0.9225046190481662,-0.1768002058200745 l 6.6014667436855445 -32.91015127773859" fill="red" stroke="none" /><path d="M 95.51606077576429 120.51570834832081 l -9.504594463187914 43.487094321414375 a65.5136460922856,65.5136460922856 0 0,0 -1.0996304851113188,-0.2502723183218366 l 10.251745097692096 -43.31704526951485" fill="red" stroke="none" /><path d="M 94.11515582081647 120.15858648285463 l -12.234933939287865 41.91087587324469 a64.66022360182392,64.66022360182392 0 0,0 -1.0657391212800345,-0.32109845485035515 l 12.954548035008145 -41.69406204928861" fill="red" stroke="none" /><path d="M 93.42475214034765 119.94407469862007 l -13.110986366679006 39.76830943122208 a62.87381518950321,62.87381518950321 0 0,0 -1.024933806908483,-0.3477131951632536 l 13.793589906524714 -39.536733249160704" fill="red" stroke="none" /><path d="M 92.7421414339146 119.70592522655815 l -15.089510850747695 40.96976674630245 a64.66022360182392,64.66022360182392 0 0,0 -1.0411212920035935,-0.39366298742807443 l 15.792502363511572 -40.70395550876774" fill="red" stroke="none" /><path d="M 92.06813273071674 119.44442032107085 l -15.412747522484674 37.783277374082466 a61.80599018917087,61.80599018917087 0 0,0 -0.9816219858146822,-0.4103180696824389 l 16.060840967796818 -37.51237426138005" fill="red" stroke="none" /><path d="M 91.07499286063937 119.00905698771935 l -17.600261676081722 37.48617474197088 a62.412347287398795,62.412347287398795 0 0,0 -0.968542540063463,-0.46495927746369903 l 18.242916884145426 -37.17766118800762" fill="red" stroke="none" /><line stroke="#e1ed5e" stroke-width="0.3" x1="58.666819895761336" x2="56.23545636021788" y1="174.27360380694188" y2="178.64263932499728" /><path d="M 58.180547188652646 175.14741091055294 a86.0,86.0 0 0,1 -31.652253787137756,-30.449443065178592" fill="none" id="id80" stroke="none" /><text fill="#e1ed5e" style="font-size:6.75px; font-family:Arial;" text-anchor="middle"><textPath startOffset="22.20632615414155" xlink:href="#id80">August</textPath></text><path d="M 88.54995079064634 117.60387380957326 l -20.982344939204438 32.25929826021622 a59.48273799236935,59.48273799236935 0 0,0 -0.8535073307296484,-0.5656581184753703 l 21.53452696867405 -31.893342120649535" fill="red" stroke="none" /><path d="M 87.95078237400918 117.19931262002967 l -24.071204657663163 34.359755703542525 a62.95254111109634,62.95254111109634 0 0,0 -0.8821529757840604,-0.6293927256077316 l 24.659084961296106 -33.94031871609058" fill="red" stroke="none" /><path d="M 86.51685102203217 116.09983520530335 l -32.39160608330536 38.677872715674575 a71.44991558432926,71.44991558432926 0 0,0 -0.93611135585257,-0.7977744059597259 l 33.052582915734995 -38.114573919491896" fill="red" stroke="none" /><path d="M 85.70375840098266 115.38237550388516 l -28.613198808078042 30.787040452885826 a63.030429522885285,63.030429522885285 0 0,0 -0.7883731037436775,-0.7454559773576933 l 29.138907746212535 -30.289949838782203" fill="red" stroke="none" /><path d="M 84.9287848128048 114.62390073753433 l -34.42819887696662 33.40636814585546 a68.97172407375403,68.97172407375403 0 0,0 -0.8194282522142796,-0.8591672464156909 l 34.99813368055985 -32.80879378285727" fill="red" stroke="none" /><path d="M 84.4343377721795 114.09645910891817 l -31.09366375977055 28.158812218902188 a62.94919107187961,62.94919107187961 0 0,0 -0.7204419521867805,-0.8094241706345299 l 31.573764561605664 -27.619413878526792" fill="red" stroke="none" /><path d="M 83.95833913139862 113.55231037782056 l -36.231766081045784 30.609308069092375 a68.43069274025231,68.43069274025231 0 0,0 -0.7524247944657428,-0.9063441358861071 l 36.75328687540507 -29.981102676092508" fill="red" stroke="none" /><path d="M 83.06392112726016 112.41649034213515 l -30.784294701734716 22.56914960810497 a59.17118434521356,59.17118434521356 0 0,0 -0.5951499925132007,-0.8266112863114866 l 31.168224486623526 -22.03590471634234" fill="red" stroke="none" /><path d="M 82.6465618267979 111.8261652097733 l -48.2331135399402 32.87030291126638 a79.36857078287227,79.36857078287227 0 0,0 -0.7596588693021886,-1.1355869377378736 l 48.79177551465312 -32.03517905932268" fill="red" stroke="none" /><path d="M 82.05923443525364 110.91462005526583 l -50.22832415531931 30.55739579169913 a79.79318825359265,79.79318825359265 0 0,0 -0.7037725930274552,-1.179563346837936 l 50.74687762404499 -29.68827035097508" fill="red" stroke="none" /><line stroke="#e1ed5e" stroke-width="0.3" x1="26.63291911575756" x2="22.317208475507996" y1="142.92168965132927" y2="145.44649492493687" /><path d="M 25.769776987707644 143.4266507060508 a86.0,86.0 0 0,1 -11.730757126820373,-40.83630448921669" fill="none" id="id81" stroke="none" /><text fill="#e1ed5e" style="font-size:6.75px; font-family:Arial;" text-anchor="middle"><textPath startOffset="21.46611528233685" xlink:href="#id81">September</textPath></text><path d="M 81.69416730710424 110.29060199501025 l -53.005464159964504 29.79695840018574 a81.80656182284673,81.80656182284673 0 0,0 -0.6794759163603531,-1.2334461553154497 l 53.51051648577638 -28.880141726472466" fill="red" stroke="none" /><path d="M 81.35079622478065 109.6543875284942 l -55.94761132565806 28.96316258548259 a84.0,84.0 0 0,0 -0.6536853208549331,-1.28978315318926 l 56.437875316299255 -27.995825220590643" fill="red" stroke="none" /><line stroke="#e1ed5e" stroke-width="0.3" x1="15.007084014347285" x2="10.007500721073583" y1="101.09737516637583" y2="101.16192664675087" /><path d="M 14.007167355692545 101.11028546245083 a86.0,86.0 0 0,1 10.666146001902534,-42.60595125391555" fill="none" id="id82" stroke="none" /><text fill="#e1ed5e" style="font-size:6.75px; font-family:Arial;" text-anchor="middle"><textPath startOffset="22.20632615414155" xlink:href="#id82">October</textPath></text><line stroke="#e1ed5e" stroke-width="0.3" x1="26.266209847984243" x2="21.928928074336255" y1="57.711370442889674" y2="55.22380399835377" /><path d="M 25.398753493254645 57.213857153982495 a86.0,86.0 0 0,1 29.58750427330803,-30.492523968695096" fill="none" id="id83" stroke="none" /><text fill="#e1ed5e" style="font-size:6.75px; font-family:Arial;" text-anchor="middle"><textPath startOffset="21.46611528233685" xlink:href="#id83">November</textPath></text><line stroke="#e1ed5e" stroke-width="0.3" x1="56.76296977257108" x2="54.21961505331056" y1="26.818313649435495" y2="22.513508569990535" /><path d="M 56.25429882871898 25.957352633546506 a86.0,86.0 0 0,1 42.26535254187918,-11.944610805530505" fill="none" id="id84" stroke="none" /><text fill="#e1ed5e" style="font-size:6.75px; font-family:Arial;" text-anchor="middle"><textPath startOffset="22.20632615414155" xlink:href="#id84">December</textPath></text></svg>