<?xml version="1.0" encoding="utf-8" ?>
<svg baseProfile="full" height="200mm" version="1.1" viewBox="0,0,200,200" width="200mm" xmlns="http://www.w3.org/2000/svg" xmlns:ev="http://www.w3.org/2001/xml-events" xmlns:xlink="http://www.w3.org/1999/xlink"><defs /><rect fill="#1a1a1a" height="200" width="200" x="0" y="0" /><text alignment-baseline="middle" fill="#e1ed5e" style="dominant-baseline: central; font-size:9.0px; font-family:Arial;" text-anchor="middle" x="100.0" y="100.0">2025</text><line stroke="#e1ed5e" stroke-width="0.3" x1="100.0" x2="100.0" y1="15.0" y2="10.0" /><path d="M 100.0 14.0 a86.0,86.0 0 0,1 42.46469731375804,11.215312516191453" fill="none" id="id73" stroke="none" /><text fill="#e1ed5e" style="font-size:6.75px; font-family:Arial;" text-anchor="middle"><textPath startOffset="22.20632615414155" xlink:href="#id73">January</textPath></text><line stroke="#e1ed5e" stroke-width="0.3" x1="143.23703022742887" x2="145.7803849466894" y1="26.81831364943548" y2="22.513508569990506" /><path d="M 143.74570117128098 25.957352633546492 a86.0,86.0 0 0,1 28.547481713284135,27.462654790039103" fill="none" id="id74" stroke="none" /><text fill="#e1ed5e" style="font-size:6.75px; font-family:Arial;" text-anchor="middle"><textPath startOffset="19.985693538727396" xlink:href="#id74">February</textPath></text><line stroke="#e1ed5e" stroke-width="0.3" x1="172.23445277983987" x2="176.4835382374775" y1="55.19839476539836" y2="52.563006222186495" /><path d="M 173.08426987136738 54.67131705675599 a86.0,86.0 0 0,1 12.851231095245387,41.99856678651699" fill="none" id="id75" stroke="none" /><text fill="#e1ed5e" style="font-size:6.75px; font-family:Arial;" text-anchor="middle"><textPath startOffset="22.20632615414155" xlink:href="#id75">March</textPath></text><line stroke="#e1ed5e" stroke-width="0.3" x1="184.98032266829074" x2="189.97916517819016" y1="98.17113171792111" y2="98.06355123074" /><path d="M 185.9800911702706 98.14961562048488 a86.0,86.0 0 0,1 -9.607161424134198,41.387399972396054" fill="none" id="id76" stroke="none" /><text fill="#e1ed5e" style="font-size:6.75px; font-family:Arial;" text-anchor="middle"><textPath startOffset="21.466115282336823" xlink:href="#id76">April</textPath></text><line stroke="#e1ed5e" stroke-width="0.3" x1="174.80103733775053" x2="179.2010983576182" y1="140.37084112569926" y2="142.7455964860345" /><path d="M 175.68104954172406 140.8457921977663 a86.0,86.0 0 0,1 -30.038265399797805,32.042727171017184" fill="none" id="id77" stroke="none" /><text fill="#e1ed5e" style="font-size:6.75px; font-family:Arial;" text-anchor="middle"><textPath startOffset="22.206326154141568" xlink:href="#id77">May</textPath></text><line stroke="#e1ed5e" stroke-width="0.3" x1="143.8653032363475" x2="146.44561519142675" y1="172.8068346515853" y2="177.08958963109032" /><path d="M 144.38136562736335 173.6633856474863 a86.0,86.0 0 0,1 -40.68145358897372,12.25698825130547" fill="none" id="id78" stroke="none" /><text fill="#e1ed5e" style="font-size:6.75px; font-family:Arial;" text-anchor="middle"><textPath startOffset="21.466115282336833" xlink:href="#id78">June</textPath></text><path d="M 109.57404056367764 118.69057910512821 l 11.339865823831445 22.137848467653303 a45.87321635171616,45.87321635171616 0 0,0 -0.7058928860038272,0.35394934713825127 l -10.957119030144858 -22.329765655700857" fill="red" stroke="none" /><path d="M 108.59647513512805 119.15986991738527 l 12.658145057383468 28.21254163858499 a51.92209795603548,51.92209795603548 0 0,0 -0.8185872934113451,0.3588446133684904 l -12.170637089314368 -28.426250805247935" fill="red" stroke="none" /><path d="M 107.93186726928326 119.44442032107085 l 13.660086052412693 33.48674981661802 a57.1657346702661,57.1657346702661 0 0,0 -0.9143221642059598,0.3638276585964979 l -13.081642812164867 -33.716924319620595" fill="red" stroke="none" /><path d="M 106.91757812671514 119.82793768551818 l 11.87242542027602 34.030076292174684 a57.041650597763216,57.041650597763216 0 0,0 -0.9298611182301747,0.3154593772773864 l -11.284894569108618 -34.22939865635019" fill="red" stroke="none" /><path d="M 105.88484417918355 120.15858648285463 l 9.79748257675873 33.5613643835262 a55.96220593906671,55.96220593906671 0 0,0 -0.9270241528720301,0.2619862853956164 l -9.218327255782095 -33.725039462260334" fill="red" stroke="none" /><path d="M 104.83641907484287 120.43548508189849 l 10.048805717015536 42.45955864104667 a64.63247204010798,64.63247204010798 0 0,0 -1.0848401947174897,0.24690609638125932 l -9.316445372905186 -42.62624147100561" fill="red" stroke="none" /><path d="M 104.13013068566511 120.58985236759428 l 8.55828564908625 42.665438807055466 a64.51532973389895,64.51532973389895 0 0,0 -1.0907157815294855,0.2090382754555649 l -7.82260225298506 -42.8064342808595" fill="red" stroke="none" /><path d="M 103.06178313531738 120.77559828337769 l 6.551854925836719 44.45733088671 a65.9375241033552,65.9375241033552 0 0,0 -1.1243020071114629,0.15581801352242822 l -5.785624327538426 -44.563523465725034" fill="red" stroke="none" /><path d="M 102.34483914955558 120.86867818915974 l 4.859750512233867 43.25097077069615 a64.52313922097957,64.52313922097957 0 0,0 -1.1047817918353726,0.1145151499039492 l -4.114536123792892 -43.32821528905586" fill="red" stroke="none" /><path d="M 101.62511606390274 120.93702456842531 l 3.49750028325053 45.059704340522536 a66.19523717701504,66.19523717701504 0 0,0 -1.1367841707191724,0.07839929208235764 l -2.7213533517524273 -45.11323197712118" fill="red" stroke="none" /><path d="M 100.90346689309514 120.98055641714683 l 2.0961890328708614 48.67827764500076 a69.72338989587351,69.72338989587351 0 0,0 -1.1995067515062992,0.04131343785192428 l -1.25796192968991 -48.70714788127878" fill="red" stroke="none" /><line stroke="#e1ed5e" stroke-width="0.3" x1="102.19456741930631" x2="102.32365962044197" y1="184.97166512339345" y2="189.96999836594603" /><path d="M 102.22038585953345 185.97133177190398 a86.0,86.0 0 0,1 -42.740103519485714,-10.115201625700543" fill="none" id="id79" stroke="none" /><text fill="#e1ed5e" style="font-size:6.75px; font-family:Arial;" text-anchor="middle"><textPath startOffset="22.20632615414155" xlink:href="#id79">July</textPath></text><path d="M 100.18074693466247 120.99922214144158 l 0.335580767527482 38.98785391223876 a59.98929811029696,59.98929811029696 0 0,0 -1.0326554043798482,0.0 l 0.3355807675274552 -38.98785391223876" fill="red" stroke="none" /><path d="M 99.45781275523022 120.99299961872073 l -1.1222433606517248 43.45224766819644 a64.4667373698419,64.4667373698419 0 0,0 -1.1090723907456965,-0.03819869561452454 l 1.8700361030720642 -43.426492174155825" fill="red" stroke="none" /><path d="M 98.37488393609728 120.93702456842531 l -3.37696629057632 43.50681638254542 a64.63767836482839,64.63767836482839 0 0,0 -1.1085536738613124,-0.09565067553134776 l 4.125364282179174 -43.44224145473541" fill="red" stroke="none" /><path d="M 97.65516085044442 120.86867818915974 l -5.119025052102625 45.558471025538495 a66.84516004627844,66.84516004627844 0 0,0 -1.1423283258262025,-0.13832005176573725 l 5.902480800980217 -45.463605445047406" fill="red" stroke="none" /><path d="M 96.22490169976321 120.6578951692458 l -6.251655129616425 34.20997972259242 a55.77651369070575,55.77651369070575 0 0,0 -0.9429747003088462,-0.18072334561288778 l 6.839597444496967 -34.09729917863107" fill="red" stroke="none" /><path d="M 95.51606077576429 120.51570834832081 l -9.847447927171846 45.055777865403485 a67.11935981488624,67.11935981488624 0 0,0 -1.126581996209419,-0.25640639450117736 l 10.621550072774127 -44.87959473732462" fill="red" stroke="none" /><path d="M 94.11515582081647 120.15858648285463 l -12.67627728107337 43.42270144638153 a66.23515233320478,66.23515233320478 0 0,0 -1.0916973235373675,-0.3289194482521095 l 13.421849579050983 -43.1980666290237" fill="red" stroke="none" /><path d="M 93.42475214034765 119.94407469862007 l -13.583931015656093 41.202847506264376 a64.3843038951022,64.3843038951022 0 0,0 -1.0495569498600548,-0.35606670214384345 l 14.291157698453373 -40.96291781722241" fill="red" stroke="none" /><path d="M 92.7421414339146 119.70592522655815 l -15.63382561189182 42.44764426143337 a66.23515233320478,66.23515233320478 0 0,0 -1.066479877920741,-0.4032514347739975 l 16.362175710572846 -42.17224457655274" fill="red" stroke="none" /><path d="M 92.06813273071674 119.44442032107085 l -15.96872220378856 39.146210593226336 a63.27795989201697,63.27795989201697 0 0,0 -1.0050002670839304,-0.42009019314901946 l 16.640193930369954 -38.86553535705735" fill="red" stroke="none" /><path d="M 91.07499286063937 119.00905698771935 l -18.235145226983303 38.838390758295354 a63.90618974161203,63.90618974161203 0 0,0 -0.9917246511030593,-0.47608809953727327 l 18.900982546086603 -38.518748382258515" fill="red" stroke="none" /><line stroke="#e1ed5e" stroke-width="0.3" x1="58.666819895761336" x2="56.23545636021788" y1="174.27360380694188" y2="178.64263932499728" /><path d="M 58.180547188652646 175.14741091055294 a86.0,86.0 0 0,1 -31.652253787137756,-30.449443065178592" fill="none" id="id80" stroke="none" /><text fill="#e1ed5e" style="font-size:6.75px; font-family:Arial;" text-anchor="middle"><textPath startOffset="22.20632615414155" xlink:href="#id80">August</textPath></text><path d="M 88.54995079064634 117.60387380957326 l -21.739228325736537 33.42296833546698 a60.8709024296182,60.8709024296182 0 0,0 -0.8734258577416711,-0.5788590320548584 l 22.31132888221817 -33.04381128232081" fill="red" stroke="none" /><path d="M 87.95078237400918 117.19931262002967 l -24.93951060497213 35.599194304550444 a64.46586964905515,64.46586964905515 0 0,0 -0.9033592249606094,-0.6445228213343673 l 25.54859715778163 -35.16462722137185" fill="red" stroke="none" /><path d="M 86.51685102203217 116.09983520530335 l -33.56004881830863 40.07307612929299 a73.26976475125338,73.26976475125338 0 0,0 -0.9599543717212988,-0.8180939413462396 l 34.24486866660698 -39.4894577977238" fill="red" stroke="none" /><path d="M 85.70375840098266 115.38237550388516 l -29.645345352047478 31.897602666346625 a64.54656768222137,64.54656768222137 0 0,0 -0.8073366830089207,-0.7633872251999178 l 30.190017869447217 -31.382580804400774" fill="red" stroke="none" /><path d="M 84.9287848128048 114.62390073753433 l -35.67010638700429 34.611415776481806 a70.7021789433089,70.7021789433089 0 0,0 -0.8399871642661043,-0.8807231835085818 l 36.26060010264935 -33.99228547639073" fill="red" stroke="none" /><path d="M 84.43433777217949 114.09645910891817 l -32.21528660957001 29.174567951386702 a64.46239876590822,64.46239876590822 0 0,0 -0.7377603368488533,-0.8288815593933268 l 32.7127057960672 -28.615712222252508" fill="red" stroke="none" /><path d="M 83.95833913139862 113.55231037782056 l -37.538732575540024 31.713459050208478 a70.14163131507907,70.14163131507907 0 0,0 -0.7712372973640261,-0.929005007522197 l 38.079065872797585 -31.06259278557252" fill="red" stroke="none" /><path d="M 83.06392112726016 112.41649034213515 l -31.894757869381724 23.38327283580079 a60.54811029695333,60.54811029695333 0 0,0 -0.6089992584851001,-0.8458467054554293 l 32.29253692024243 -22.83079252489422" fill="red" stroke="none" /><path d="M 82.6465618267979 111.8261652097733 l -49.972997352968456 34.0560133862348 a81.47406478981875,81.47406478981875 0 0,0 -0.7798111434437393,-1.165711853283039 l 50.551811601822926 -33.19076461874594" fill="red" stroke="none" /><path d="M 82.05923443525364 110.91462005526583 l -52.04017998919597 31.65967417275885 a81.91399922869263,81.91399922869263 0 0,0 -0.722478057390198,-1.2109147810461929 l 52.5774389222844 -30.759197297826546" fill="red" stroke="none" /><line stroke="#e1ed5e" stroke-width="0.3" x1="26.63291911575756" x2="22.317208475507996" y1="142.92168965132927" y2="145.44649492493687" /><path d="M 25.769776987707644 143.4266507060508 a86.0,86.0 0 0,1 -11.730757126820373,-40.83630448921669" fill="none" id="id81" stroke="none" /><text fill="#e1ed5e" style="font-size:6.75px; font-family:Arial;" text-anchor="middle"><textPath startOffset="21.46611528233685" xlink:href="#id81">September</textPath></text><path d="M 81.69416730710424 110.29060199501025 l -54.91749807868727 30.871805985030743 a84.0,84.0 0 0,0 -0.6976943621939338,-1.2665179264087099 l 55.44076885033272 -29.92191754022421" fill="red" stroke="none" /><line stroke="#e1ed5e" stroke-width="0.3" x1="15.007084014347285" x2="10.007500721073583" y1="101.09737516637583" y2="101.16192664675087" /><path d="M 14.007167355692545 101.11028546245083 a86.0,86.0 0 0,1 10.666146001902534,-42.60595125391555" fill="none" id="id82" stroke="none" /><text fill="#e1ed5e" style="font-size:6.75px; font-family:Arial;" text-anchor="middle"><textPath startOffset="22.20632615414155" xlink:href="#id82">October</textPath></text><line stroke="#e1ed5e" stroke-width="0.3" x1="26.266209847984243" x2="21.928928074336255" y1="57.711370442889674" y2="55.22380399835377" /><path d="M 25.398753493254645 57.213857153982495 a86.0,86.0 0 0,1 29.58750427330803,-30.492523968695096" fill="none" id="id83" stroke="none" /><text fill="#e1ed5e" style="font-size:6.75px; font-family:Arial;" text-anchor="middle"><textPath startOffset="21.46611528233685" xlink:href="#id83">November</textPath></text><line stroke="#e1ed5e" stroke-width="0.3" x1="56.762969772571076" x2="54.21961505331055" y1="26.818313649435495" y2="22.513508569990535" /><path d="M 56.25429882871897 25.957352633546506 a86.0,86.0 0 0,1 42.265352541879196,-11.944610805530505" fill="none" id="id84" stroke="none" /><text fill="#e1ed5e" style="font-size:6.75px; font-family:Arial;" text-anchor="middle"><textPath startOffset="22.20632615414155" xlink:href="#id84">December</textPath></text></svg>