<?xml version="1.0" encoding="utf-8" ?>
<svg baseProfile="full" height="200mm" version="1.1" viewBox="0,0,200,200" width="200mm" xmlns="http://www.w3.org/2000/svg" xmlns:ev="http://www.w3.org/2001/xml-events" xmlns:xlink="http://www.w3.org/1999/xlink"><defs /><rect fill="#1a1a1a" height="200" width="200" x="0" y="0" /><rect fill="#1a1a1a" height="200" width="180" x="10" y="0" /><text alignment-baseline="middle" fill="#e1ed5e" style="dominant-baseline: central; font-size:9.0px; font-family:Arial;" text-anchor="middle" x="100.0" y="100.0">2026</text><line stroke="#e1ed5e" stroke-width="0.3" x1="100.0" x2="100.0" y1="15.0" y2="10.0" /><path d="M 100.0 14.0 a86.0,86.0 0 0,1 42.46469731375804,11.215312516191453" fill="none" id="id85" stroke="none" /><text fill="#e1ed5e" style="font-size:6.75px; font-family:Arial;" text-anchor="middle"><textPath startOffset="22.20632615414155" xlink:href="#id85">January</textPath></text><path d="M 101.44485096284872 79.0497635885617 l 3.6068280196266893 -52.29875028604654 a73.42297673583042,73.42297673583042 0 0,0 1.26011243532447,0.097808977310825 l -4.506530644313501 52.22891604654725" fill="red" stroke="none" /><path d="M 103.59715602781102 79.31037775812273 l 9.057565424918467 -52.09604632765635 a73.877571184766,73.877571184766 0 0,0 1.251010702589073,0.2286142096389794 l -9.95297124861044 51.93241663666664" fill="red" stroke="none" /><path d="M 104.66035177308747 79.52364482259891 l 10.555036064655496 -46.37604152936698 a68.56202281505433,68.56202281505433 0 0,0 1.1484997904891028,0.27181279386877627 l -11.351759542107123 46.187482823357335" fill="red" stroke="none" /><path d="M 107.76421540070413 80.48803036053334 l 14.577634640179495 -36.63452774489282 a60.42836611874607,60.42836611874607 0 0,0 0.963159470207756,0.3928969313918005 l -15.206077979975639 36.378169927317444" fill="red" stroke="none" /><path d="M 109.41281617654863 81.2277094730956 l 23.5330268438572 -46.93269353235259 a73.50220066469056,73.50220066469056 0 0,0 1.12612200966719,0.5768434321676903 l -24.337409341113144 46.520657574872395" fill="red" stroke="none" /><line stroke="#e1ed5e" stroke-width="0.3" x1="143.23703022742887" x2="145.7803849466894" y1="26.81831364943548" y2="22.513508569990506" /><path d="M 143.74570117128098 25.957352633546492 a86.0,86.0 0 0,1 28.547481713284135,27.462654790039103" fill="none" id="id86" stroke="none" /><text fill="#e1ed5e" style="font-size:6.75px; font-family:Arial;" text-anchor="middle"><textPath startOffset="19.985693538727396" xlink:href="#id86">February</textPath></text><path d="M 113.34407831869373 83.78471172551755 l 33.004809178438016 -40.10636647140472 a72.94071678792778,72.94071678792778 0 0,0 0.9626176145987506,0.806164568825869 l -33.69028432999588 39.53230074518503" fill="red" stroke="none" /><path d="M 113.89432698308785 84.25364557470405 l 24.994728997810828 -28.3263710464574 a58.77723883948621,58.77723883948621 0 0,0 0.7528776870127625,0.6759410210257051 l -25.47861767241958 27.8919310166624" fill="red" stroke="none" /><path d="M 116.15771136456269 86.58626213691792 l 29.181990694984467 -24.2261768807142 a58.927512799784424,58.927512799784424 0 0,0 0.6411916920446409,0.7860251990876609 l -29.594680879105518 23.720267512018438" fill="red" stroke="none" /><path d="M 117.65298651832404 88.62581576622439 l 42.4144198669406 -27.32848774537535 a71.45621126381029,71.45621126381029 0 0,0 0.6573032425231928,1.0396958779565653 l -42.87855070570975 26.59434421970458" fill="red" stroke="none" /><line stroke="#e1ed5e" stroke-width="0.3" x1="172.23445277983987" x2="176.4835382374775" y1="55.19839476539836" y2="52.563006222186495" /><path d="M 173.08426987136738 54.67131705675599 a86.0,86.0 0 0,1 12.851231095245387,41.99856678651699" fill="none" id="id87" stroke="none" /><text fill="#e1ed5e" style="font-size:6.75px; font-family:Arial;" text-anchor="middle"><textPath startOffset="22.20632615414155" xlink:href="#id87">March</textPath></text><path d="M 118.89224826269711 90.83032412892265 l 33.06299000577589 -16.04768778527326 a57.75172909368544,57.75172909368544 0 0,0 0.4263777327355518,0.8980602450198021 l -33.334325932353195 15.47618512461292" fill="red" stroke="none" /><path d="M 119.34039704204932 91.81776055985345 l 32.012210823035744 -13.543236645713385 a55.75918440671876,55.75918440671876 0 0,0 0.36635991452573813,0.887169592431828 l -32.24059242444768 12.990192482828254" fill="red" stroke="none" /><path d="M 119.61058180528143 92.48833698450437 l 35.74634630694133 -13.692327446431756 a59.2789903889338,59.2789903889338 0 0,0 0.3567901134960709,0.9560201192853525 l -35.97674100893902 13.074984190117071" fill="red" stroke="none" /><path d="M 120.37134235888165 94.90015583598534 l 45.556930810120946 -11.404906148519958 a67.96281325788198,67.96281325788198 0 0,0 0.27433416029845287,1.1372922036568398 l -45.746497770680215 10.619028713203713" fill="red" stroke="none" /><path d="M 120.45610955862082 95.25157060432595 l 30.774504652308817 -7.143614581725156 a52.59274229767358,52.59274229767358 0 0,0 0.1971116200848698,0.8836127431358205 l -30.892910659395724 6.612823669039372" fill="red" stroke="none" /><path d="M 120.73433829027371 96.67025291283417 l 55.98563117738449 -8.990785706601663 a77.70295517829877,77.70295517829877 0 0,0 0.2007108276558544,1.32243357859439 l -56.13209789847964 8.025753015615189" fill="red" stroke="none" /><path d="M 120.83666639777658 97.38593545837742 l 47.96444761800828 -6.01738106197871 a69.34042935417227,69.34042935417227 0 0,0 0.1383825198482353,1.1855769212789877 l -48.060920490860106 5.190860402374869" fill="red" stroke="none" /><path d="M 120.87857604477298 97.74499172005257 l 46.73065282346656 -5.047183716853502 a68.00242522231204,68.00242522231204 0 0,0 0.1156781947390617,1.164863634471788 l -46.810608143887855 4.24204455167728" fill="red" stroke="none" /><line stroke="#e1ed5e" stroke-width="0.3" x1="184.98032266829074" x2="189.97916517819016" y1="98.17113171792111" y2="98.06355123074" /><path d="M 185.9800911702706 98.14961562048488 a86.0,86.0 0 0,1 -9.607161424134198,41.387399972396054" fill="none" id="id88" stroke="none" /><text fill="#e1ed5e" style="font-size:6.75px; font-family:Arial;" text-anchor="middle"><textPath startOffset="21.466115282336823" xlink:href="#id88">April</textPath></text><path d="M 120.99513854157772 99.54816195383933 l 62.98541562473312 -1.355514138482002 a84.0,84.0 0 0,0 0.018667971529137795,1.4458549677581491 l -62.99941660337998 0.27112291266339017" fill="red" stroke="none" /><path d="M 120.99980553446 99.90962569577887 l 34.42373583658642 -0.1481452373365265 a55.424054612413535,55.424054612413535 0 0,0 -0.004105873904155464,0.9540604962813735 l -34.42118566539276 -0.44442473714853176" fill="red" stroke="none" /><path d="M 120.9904718944345 100.63252640178507 l 37.805348852894184 1.1392255209131745 a58.82250965597772,58.82250965597772 0 0,0 -0.039209032167771114,1.0118108988322607 l -37.78013768787521 -1.7898136667594415" fill="red" stroke="none" /><path d="M 120.95626037817324 101.35467743843564 l 43.983111470079564 2.843204259991663 a65.07491242252762,65.07491242252762 0 0,0 -0.0818811014676201,1.1172025746876784 l -43.92765380994761 -3.5998799711761116" fill="red" stroke="none" /><path d="M 120.81339534386255 102.79330883721812 l 48.15391733318204 6.462605481287406 a69.58564627683464,69.58564627683464 0 0,0 -0.16954360130368312,1.1857875526349926 l -48.03553968086175 -7.290538505902808" fill="red" stroke="none" /><path d="M 120.49622156327973 104.57218783832717 l 42.78254098278532 9.543701163177895 a64.83409682924639,64.83409682924639 0 0,0 -0.2523572563441114,1.0871484555274133 l -42.611923160510656 -10.278718276053873" fill="red" stroke="none" /><path d="M 120.41448212921028 104.9243191809786 l 55.4165875553975 13.367420408522527 a78.0060181442558,78.0060181442558 0 0,0 -0.32609741952189775,1.3025970915548628 l -55.17827882158054 -14.319345339474786" fill="red" stroke="none" /><path d="M 120.23288151984713 105.62410040840565 l 45.32119420175223 12.597856937454786 a68.03952214138147,68.03952214138147 0 0,0 -0.32337358535529237,1.1257058732506413 l -45.09762797951083 -13.376120286210009" fill="red" stroke="none" /><line stroke="#e1ed5e" stroke-width="0.3" x1="174.80103733775053" x2="179.2010983576182" y1="140.37084112569926" y2="142.7455964860345" /><path d="M 175.68104954172406 140.8457921977663 a86.0,86.0 0 0,1 -30.038265399797805,32.042727171017184" fill="none" id="id89" stroke="none" /><text fill="#e1ed5e" style="font-size:6.75px; font-family:Arial;" text-anchor="middle"><textPath startOffset="22.206326154141568" xlink:href="#id89">May</textPath></text><line stroke="#e1ed5e" stroke-width="0.3" x1="143.8653032363475" x2="146.44561519142675" y1="172.8068346515853" y2="177.08958963109032" /><path d="M 144.38136562736335 173.6633856474863 a86.0,86.0 0 0,1 -40.68145358897372,12.25698825130547" fill="none" id="id90" stroke="none" /><text fill="#e1ed5e" style="font-size:6.75px; font-family:Arial;" text-anchor="middle"><textPath startOffset="21.466115282336833" xlink:href="#id90">June</textPath></text><line stroke="#e1ed5e" stroke-width="0.3" x1="102.19456741930631" x2="102.32365962044197" y1="184.97166512339345" y2="189.96999836594603" /><path d="M 102.22038585953345 185.97133177190398 a86.0,86.0 0 0,1 -42.740103519485714,-10.115201625700543" fill="none" id="id91" stroke="none" /><text fill="#e1ed5e" style="font-size:6.75px; font-family:Arial;" text-anchor="middle"><textPath startOffset="22.20632615414155" xlink:href="#id91">July</textPath></text><line stroke="#e1ed5e" stroke-width="0.3" x1="58.666819895761336" x2="56.23545636021788" y1="174.27360380694188" y2="178.64263932499728" /><path d="M 58.180547188652646 175.14741091055294 a86.0,86.0 0 0,1 -31.652253787137756,-30.449443065178592" fill="none" id="id92" stroke="none" /><text fill="#e1ed5e" style="font-size:6.75px; font-family:Arial;" text-anchor="middle"><textPath startOffset="22.20632615414155" xlink:href="#id92">August</textPath></text><line stroke="#e1ed5e" stroke-width="0.3" x1="26.63291911575756" x2="22.317208475507996" y1="142.92168965132927" y2="145.44649492493687" /><path d="M 25.769776987707644 143.4266507060508 a86.0,86.0 0 0,1 -11.730757126820373,-40.83630448921669" fill="none" id="id93" stroke="none" /><text fill="#e1ed5e" style="font-size:6.75px; font-family:Arial;" text-anchor="middle"><textPath startOffset="21.46611528233685" xlink:href="#id93">September</textPath></text><line stroke="#e1ed5e" stroke-width="0.3" x1="15.007084014347285" x2="10.007500721073583" y1="101.09737516637583" y2="101.16192664675087" /><path d="M 14.007167355692545 101.11028546245083 a86.0,86.0 0 0,1 10.666146001902534,-42.60595125391555" fill="none" id="id94" stroke="none" /><text fill="#e1ed5e" style="font-size:6.75px; font-family:Arial;" text-anchor="middle"><textPath startOffset="22.20632615414155" xlink:href="#id94">October</textPath></text><line stroke="#e1ed5e" stroke-width="0.3" x1="26.266209847984243" x2="21.928928074336255" y1="57.711370442889674" y2="55.22380399835377" /><path d="M 25.398753493254645 57.213857153982495 a86.0,86.0 0 0,1 29.58750427330803,-30.492523968695096" fill="none" id="id95" stroke="none" /><text fill="#e1ed5e" style="font-size:6.75px; font-family:Arial;" text-anchor="middle"><textPath startOffset="21.46611528233685" xlink:href="#id95">November</textPath></text><line stroke="#e1ed5e" stroke-width="0.3" x1="56.76296977257108" x2="54.21961505331056" y1="26.818313649435495" y2="22.513508569990535" /><path d="M 56.25429882871898 25.957352633546506 a86.0,86.0 0 0,1 42.26535254187918,-11.944610805530505" fill="none" id="id96" stroke="none" /><text fill="#e1ed5e" style="font-size:6.75px; font-family:Arial;" text-anchor="middle"><textPath startOffset="22.20632615414155" xlink:href="#id96">December</textPath></text></svg>