<?xml version="1.0" encoding="utf-8" ?>
<svg baseProfile="full" height="200mm" version="1.1" viewBox="0,0,200,200" width="200mm" xmlns="http://www.w3.org/2000/svg" xmlns:ev="http://www.w3.org/2001/xml-events" xmlns:xlink="http://www.w3.org/1999/xlink"><defs /><rect fill="#1a1a1a" height="200" width="200" x="0" y="0" /><text alignment-baseline="middle" fill="#e1ed5e" style="dominant-baseline: central; font-size:9.0px; font-family:Arial;" text-anchor="middle" x="100.0" y="100.0">2025</text><line stroke="#e1ed5e" stroke-width="0.3" x1="100.0" x2="100.0" y1="15.0" y2="10.0" /><path d="M 100.0 14.0 a86.0,86.0 0 0,1 42.46469731375804,11.215312516191453" fill="none" id="id73" stroke="none" /><text fill="#e1ed5e" style="font-size:6.75px; font-family:Arial;" text-anchor="middle"><textPath startOffset="22.20632615414155" xlink:href="#id73">January</textPath></text><line stroke="#e1ed5e" stroke-width="0.3" x1="143.23703022742887" x2="145.7803849466894" y1="26.81831364943548" y2="22.513508569990506" /><path d="M 143.74570117128098 25.957352633546492 a86.0,86.0 0 0,1 28.547481713284135,27.462654790039103" fill="none" id="id74" stroke="none" /><text fill="#e1ed5e" style="font-size:6.75px; font-family:Arial;" text-anchor="middle"><textPath startOffset="19.985693538727396" xlink:href="#id74">February</textPath></text><line stroke="#e1ed5e" stroke-width="0.3" x1="172.23445277983987" x2="176.4835382374775" y1="55.19839476539836" y2="52.563006222186495" /><path d="M 173.08426987136738 54.67131705675599 a86.0,86.0 0 0,1 12.851231095245387,41.99856678651699" fill="none" id="id75" stroke="none" /><text fill="#e1ed5e" style="font-size:6.75px; font-family:Arial;" text-anchor="middle"><textPath startOffset="22.20632615414155" xlink:href="#id75">March</textPath></text><line stroke="#e1ed5e" stroke-width="0.3" x1="184.98032266829074" x2="189.97916517819016" y1="98.17113171792111" y2="98.06355123074" /><path d="M 185.9800911702706 98.14961562048488 a86.0,86.0 0 0,1 -9.607161424134198,41.387399972396054" fill="none" id="id76" stroke="none" /><text fill="#e1ed5e" style="font-size:6.75px; font-family:Arial;" text-anchor="middle"><textPath startOffset="21.466115282336823" xlink:href="#id76">April</textPath></text><line stroke="#e1ed5e" stroke-width="0.3" x1="174.80103733775053" x2="179.2010983576182" y1="140.37084112569926" y2="142.7455964860345" /><path d="M 175.68104954172406 140.8457921977663 a86.0,86.0 0 0,1 -30.038265399797805,32.042727171017184" fill="none" id="id77" stroke="none" /><text fill="#e1ed5e" style="font-size:6.75px; font-family:Arial;" text-anchor="middle"><textPath startOffset="22.206326154141568" xlink:href="#id77">May</textPath></text><line stroke="#e1ed5e" stroke-width="0.3" x1="143.8653032363475" x2="146.44561519142675" y1="172.8068346515853" y2="177.08958963109032" /><path d="M 144.38136562736335 173.6633856474863 a86.0,86.0 0 0,1 -40.68145358897372,12.25698825130547" fill="none" id="id78" stroke="none" /><text fill="#e1ed5e" style="font-size:6.75px; font-family:Arial;" text-anchor="middle"><textPath startOffset="21.466115282336833" xlink:href="#id78">June</textPath></text><path d="M 109.57404056367764 118.69057910512821 l 11.728199690505104 22.895959403782058 a46.725,46.725 0 0,0 -0.7190000554058579,0.36052155397680286 l -11.332345727416484 -23.094448798668164" fill="red" stroke="none" /><path d="M 108.59647513512805 119.15986991738527 l 13.091623415189021 29.178680528886392 a52.98102564102564,52.98102564102564 0 0,0 -0.8352820107224294,0.36616308682515303 l -12.587420729808837 -29.399708169005997" fill="red" stroke="none" /><path d="M 107.93186726928326 119.44442032107085 l 14.127875893865687 34.63350404110734 a58.404230769230765,58.404230769230765 0 0,0 -0.9341309612081787,0.3717099877306599 l -13.529623856615641 -34.871560873244064" fill="red" stroke="none" /><path d="M 106.91757812671514 119.82793768551818 l 12.27899679791624 35.19543673955912 a58.27589743589744,58.27589743589744 0 0,0 -0.9499811205977877,0.32228517447792665 l -11.671345944381226 -35.40158490093517" fill="red" stroke="none" /><path d="M 105.88484417918355 120.15858648285463 l 10.132997507165113 34.71067378492217 a57.15948717948718,57.15948717948718 0 0,0 -0.9468573350889509,0.26759134079842073 l -9.534009003971557 -34.87995391905911" fill="red" stroke="none" /><path d="M 104.83641907484287 120.43548508189849 l 10.392927211940114 43.913586831546326 a66.12666666666667,66.12666666666667 0 0,0 -1.1099198851340322,0.25261415226760264 l -9.63548717741322 -44.085977717391614" fill="red" stroke="none" /><path d="M 104.13013068566511 120.58985236759428 l 8.85136426305211 44.126517366772866 a66.00551282051282,66.00551282051282 0 0,0 -1.1159092699087911,0.21386666746446656 l -8.090487378571614 -44.2723412325858" fill="red" stroke="none" /><path d="M 103.06178313531738 120.77559828337769 l 6.776223291103263 45.97977281622069 a67.47641025641026,67.47641025641026 0 0,0 -1.1505415848651535,0.15945457990351272 l -5.983753115051279 -46.0896019616168" fill="red" stroke="none" /><path d="M 102.34483914955558 120.86867818915974 l 5.02617273775253 44.73210088084933 a66.01358974358975,66.01358974358975 0 0,0 -1.1303016691831231,0.11716038953552664 l -4.255438471963804 -44.81199063884061" fill="red" stroke="none" /><path d="M 101.62511606390274 120.93702456842531 l 3.617272230272386 46.60277455753986 a67.74294871794872,67.74294871794872 0 0,0 -1.1633633334445488,0.08023234676018011 l -2.8145461360489064 -46.65813524881632" fill="red" stroke="none" /><path d="M 100.90346689309514 120.98055641714683 l 2.1679730561617676 50.34526595637658 a71.39192307692309,71.39192307692309 0 0,0 -1.2282118505952881,0.04230209950452195 l -1.301040853891827 -50.375124854307195" fill="red" stroke="none" /><line stroke="#e1ed5e" stroke-width="0.3" x1="102.19456741930631" x2="102.32365962044197" y1="184.97166512339345" y2="189.96999836594603" /><path d="M 102.22038585953345 185.97133177190398 a86.0,86.0 0 0,1 -42.740103519485714,-10.115201625700543" fill="none" id="id79" stroke="none" /><text fill="#e1ed5e" style="font-size:6.75px; font-family:Arial;" text-anchor="middle"><textPath startOffset="22.20632615414155" xlink:href="#id79">July</textPath></text><path d="M 100.18074693466247 120.99922214144158 l 0.34707273569181346 40.32299352484592 a61.324487179487186,61.324487179487186 0 0,0 -1.05563934070851,0.0 l 0.3470727356917857 -40.32299352484592" fill="red" stroke="none" /><path d="M 99.45781275523022 120.99299961872073 l -1.1606746005236155 44.9402705085717 a65.95525641025641,65.95525641025641 0 0,0 -1.134680563862199,-0.03908069287483289 l 1.9340755160604575 -44.913633017270776" fill="red" stroke="none" /><path d="M 98.37488393609728 120.93702456842531 l -3.492610549302038 44.996707929320905 a66.13205128205128,66.13205128205128 0 0,0 -1.134182573744692,-0.09786204485407235 l 4.266637440788272 -44.92992163218817" fill="red" stroke="none" /><path d="M 97.65516085044442 120.86867818915974 l -5.294326137932464 47.118621514789126 a68.4151282051282,68.4151282051282 0 0,0 -1.169157779106854,-0.14156872492101602 l 6.104611340090708 -47.02050726114276" fill="red" stroke="none" /><path d="M 96.22490169976321 120.6578951692458 l -6.465743148585055 35.38150096551425 a56.9674358974359,56.9674358974359 0 0,0 -0.963108793257177,-0.18458209244598034 l 7.073819556413928 -35.2649616747198" fill="red" stroke="none" /><path d="M 95.51606077576429 120.51570834832081 l -10.184673921714882 46.59871362022442 a68.69871794871796,68.69871794871796 0 0,0 -1.1530911352126652,-0.26243978823196923 l 10.985285206320409 -46.416497098414766" fill="red" stroke="none" /><path d="M 94.11515582081647 120.15858648285463 l -13.11037657713748 44.909712475969876 a67.78423076923077,67.78423076923077 0 0,0 -1.117229457502299,-0.3366120707724548 l 13.881481009080025 -44.6773850360917" fill="red" stroke="none" /><path d="M 93.42475214034765 119.94407469862007 l -14.049112926790526 42.61383960605155 a65.87,65.87 0 0,0 -1.0737759376869018,-0.3642830977628874 l 14.780558597414654 -42.36569352139054" fill="red" stroke="none" /><path d="M 92.7421414339146 119.70592522655815 l -16.169206192675126 43.90126444383346 a67.78423076923077,67.78423076923077 0 0,0 -1.0914222374254303,-0.41268250090580716 l 16.92249865086084 -43.61643369282102" fill="red" stroke="none" /><path d="M 92.06813273071674 119.44442032107085 l -16.515571323131972 40.4867731326297 a64.72576923076923,64.72576923076923 0 0,0 -1.0279948259258345,-0.4297019206098493 l 17.210037608555268 -40.196486168999876" fill="red" stroke="none" /><path d="M 91.07499286063937 119.00905698771935 l -18.85960803504125 40.168412003066614 a65.37551282051282,65.37551282051282 0 0,0 -1.014526259580614,-0.48703425725796495 l 19.548246962622105 -39.837823469309086" fill="red" stroke="none" /><line stroke="#e1ed5e" stroke-width="0.3" x1="58.666819895761336" x2="56.23545636021788" y1="174.27360380694188" y2="178.64263932499728" /><path d="M 58.180547188652646 175.14741091055294 a86.0,86.0 0 0,1 -31.652253787137756,-30.449443065178592" fill="none" id="id80" stroke="none" /><text fill="#e1ed5e" style="font-size:6.75px; font-family:Arial;" text-anchor="middle"><textPath startOffset="22.20632615414155" xlink:href="#id80">August</textPath></text><path d="M 88.54995079064634 117.60387380957326 l -22.483688509427 34.56753836222571 a62.236282051282046,62.236282051282046 0 0,0 -0.8930174494479652,-0.5918432707409469 l 23.07538065761493 -34.175397070393444" fill="red" stroke="none" /><path d="M 87.95078237400918 117.19931262002967 l -25.79356450090308 36.81828922062079 a65.95435897435897,65.95435897435897 0 0,0 -0.9242174026380171,-0.6594045772882323 l 26.423509231389986 -36.36884038148834" fill="red" stroke="none" /><path d="M 86.51685102203217 116.09983520530335 l -34.70931316815498 41.44537919218217 a75.05974358974359,75.05974358974359 0 0,0 -0.9834060371815445,-0.8380799594244779 l 35.41758468191358 -40.84177484253474" fill="red" stroke="none" /><path d="M 85.70375840098266 115.38237550388516 l -30.660550625926703 32.98993652403746 a66.0378205128205,66.0378205128205 0 0,0 -0.8259890011261424,-0.781024156198747 l 31.223875461443665 -32.45727773109278" fill="red" stroke="none" /><path d="M 84.9287848128048 114.62390073753433 l -36.89162968834843 35.796684202787546 a72.40423076923076,72.40423076923076 0 0,0 -0.860208629969961,-0.9019253094547209 l 37.50234486969735 -35.15635177675032" fill="red" stroke="none" /><path d="M 84.43433777217949 114.09645910891817 l -33.31849955842194 30.173651446474068 a65.95076923076923,65.95076923076923 0 0,0 -0.7547944639761929,-0.8480195817984347 l 33.83295287204647 -29.59565769493477" fill="red" stroke="none" /><path d="M 83.95833913139862 113.55231037782056 l -38.82424700732918 32.79948690714155 a71.82448717948719,71.82448717948719 0 0,0 -0.7897410188256669,-0.9512939320262547 l 39.38308402604838 -32.12633171800153" fill="red" stroke="none" /><path d="M 83.06392112726016 112.41649034213515 l -32.98699430695998 24.18403334715784 a61.90243589743589,61.90243589743589 0 0,0 -0.6226212077481933,-0.8647664015725145 l 33.39839530708378 -23.612633340134188" fill="red" stroke="none" /><path d="M 82.6465618267979 111.8261652097733 l -51.68432335918691 35.2222620497748 a83.545,83.545 0 0,0 -0.7996326456409776,-1.195342309651176 l 52.28295911023862 -34.3273828259178" fill="red" stroke="none" /><path d="M 82.05923443525364 110.91462005526583 l -53.82229669423909 32.743860165797486 a84.0,84.0 0 0,0 -0.7408764972070725,-1.2417516244555555 l 54.3779540671444 -31.812546447455823" fill="red" stroke="none" /><line stroke="#e1ed5e" stroke-width="0.3" x1="26.63291911575756" x2="22.317208475507996" y1="142.92168965132927" y2="145.44649492493687" /><path d="M 25.769776987707644 143.4266507060508 a86.0,86.0 0 0,1 -11.730757126820373,-40.83630448921669" fill="none" id="id81" stroke="none" /><text fill="#e1ed5e" style="font-size:6.75px; font-family:Arial;" text-anchor="middle"><textPath startOffset="21.46611528233685" xlink:href="#id81">September</textPath></text><line stroke="#e1ed5e" stroke-width="0.3" x1="15.007084014347285" x2="10.007500721073583" y1="101.09737516637583" y2="101.16192664675087" /><path d="M 14.007167355692545 101.11028546245083 a86.0,86.0 0 0,1 10.666146001902534,-42.60595125391555" fill="none" id="id82" stroke="none" /><text fill="#e1ed5e" style="font-size:6.75px; font-family:Arial;" text-anchor="middle"><textPath startOffset="22.20632615414155" xlink:href="#id82">October</textPath></text><line stroke="#e1ed5e" stroke-width="0.3" x1="26.266209847984243" x2="21.928928074336255" y1="57.711370442889674" y2="55.22380399835377" /><path d="M 25.398753493254645 57.213857153982495 a86.0,86.0 0 0,1 29.58750427330803,-30.492523968695096" fill="none" id="id83" stroke="none" /><text fill="#e1ed5e" style="font-size:6.75px; font-family:Arial;" text-anchor="middle"><textPath startOffset="21.46611528233685" xlink:href="#id83">November</textPath></text><line stroke="#e1ed5e" stroke-width="0.3" x1="56.762969772571076" x2="54.21961505331055" y1="26.818313649435495" y2="22.513508569990535" /><path d="M 56.25429882871897 25.957352633546506 a86.0,86.0 0 0,1 42.265352541879196,-11.944610805530505" fill="none" id="id84" stroke="none" /><text fill="#e1ed5e" style="font-size:6.75px; font-family:Arial;" text-anchor="middle"><textPath startOffset="22.20632615414155" xlink:href="#id84">December</textPath></text></svg>