<?xml version="1.0" encoding="utf-8" ?>
<svg baseProfile="full" height="200mm" version="1.1" viewBox="0,0,200,200" width="200mm" xmlns="http://www.w3.org/2000/svg" xmlns:ev="http://www.w3.org/2001/xml-events" xmlns:xlink="http://www.w3.org/1999/xlink"><defs /><rect fill="#1a1a1a" height="200" width="200" x="0" y="0" /><rect fill="#1a1a1a" height="200" width="180" x="10" y="0" /><text alignment-baseline="middle" fill="#e1ed5e" style="dominant-baseline: central; font-size:9.0px; font-family:Arial;" text-anchor="middle" x="100.0" y="100.0">2025</text><line stroke="#e1ed5e" stroke-width="0.3" x1="100.0" x2="100.0" y1="15.0" y2="10.0" /><path d="M 100.0 14.0 a86.0,86.0 0 0,1 42.46469731375804,11.215312516191453" fill="none" id="id73" stroke="none" /><text fill="#e1ed5e" style="font-size:6.75px; font-family:Arial;" text-anchor="middle"><textPath startOffset="22.20632615414155" xlink:href="#id73">January</textPath></text><line stroke="#e1ed5e" stroke-width="0.3" x1="143.23703022742887" x2="145.7803849466894" y1="26.81831364943548" y2="22.513508569990506" /><path d="M 143.74570117128098 25.957352633546492 a86.0,86.0 0 0,1 28.547481713284135,27.462654790039103" fill="none" id="id74" stroke="none" /><text fill="#e1ed5e" style="font-size:6.75px; font-family:Arial;" text-anchor="middle"><textPath startOffset="19.985693538727396" xlink:href="#id74">February</textPath></text><line stroke="#e1ed5e" stroke-width="0.3" x1="172.23445277983987" x2="176.4835382374775" y1="55.19839476539836" y2="52.563006222186495" /><path d="M 173.08426987136738 54.67131705675599 a86.0,86.0 0 0,1 12.851231095245387,41.99856678651699" fill="none" id="id75" stroke="none" /><text fill="#e1ed5e" style="font-size:6.75px; font-family:Arial;" text-anchor="middle"><textPath startOffset="22.20632615414155" xlink:href="#id75">March</textPath></text><line stroke="#e1ed5e" stroke-width="0.3" x1="184.98032266829074" x2="189.97916517819016" y1="98.17113171792111" y2="98.06355123074" /><path d="M 185.9800911702706 98.14961562048488 a86.0,86.0 0 0,1 -9.607161424134198,41.387399972396054" fill="none" id="id76" stroke="none" /><text fill="#e1ed5e" style="font-size:6.75px; font-family:Arial;" text-anchor="middle"><textPath startOffset="21.466115282336823" xlink:href="#id76">April</textPath></text><line stroke="#e1ed5e" stroke-width="0.3" x1="174.80103733775053" x2="179.2010983576182" y1="140.37084112569926" y2="142.7455964860345" /><path d="M 175.68104954172406 140.8457921977663 a86.0,86.0 0 0,1 -30.038265399797805,32.042727171017184" fill="none" id="id77" stroke="none" /><text fill="#e1ed5e" style="font-size:6.75px; font-family:Arial;" text-anchor="middle"><textPath startOffset="22.206326154141568" xlink:href="#id77">May</textPath></text><line stroke="#e1ed5e" stroke-width="0.3" x1="143.8653032363475" x2="146.44561519142675" y1="172.8068346515853" y2="177.08958963109032" /><path d="M 144.38136562736335 173.6633856474863 a86.0,86.0 0 0,1 -40.68145358897372,12.25698825130547" fill="none" id="id78" stroke="none" /><text fill="#e1ed5e" style="font-size:6.75px; font-family:Arial;" text-anchor="middle"><textPath startOffset="21.466115282336833" xlink:href="#id78">June</textPath></text><path d="M 109.57404056367764 118.69057910512821 l 7.919580783700059 15.460719027948253 a38.3710561754521,38.3710561754521 0 0,0 -0.5904503267229823,0.2960640513666172 l -7.652276549294317 -15.594750920224172" fill="red" stroke="none" /><path d="M 108.59647513512805 119.15986991738527 l 8.840245899829446 19.7031875060391 a42.59549826856483,42.59549826856483 0 0,0 -0.6715470871130125,0.29438650804064026 l -8.49977813805868 -19.852438567374193" fill="red" stroke="none" /><path d="M 107.93186726928326 119.44442032107085 l 9.539985453533772 23.386610077777362 a46.25757021931511,46.25757021931511 0 0,0 -0.7398544242943511,0.2944033442818722 l -9.136009953197554 -23.547360266465304" fill="red" stroke="none" /><path d="M 106.91757812671514 119.82793768551818 l 8.291511881624855 23.766060591737688 a46.17091188918815,46.17091188918815 0 0,0 -0.752652409407502,0.2553405618571548 l -7.881189739280126 -23.905264140492964" fill="red" stroke="none" /><path d="M 105.88484417918355 120.15858648285463 l 6.842405011571671 23.438719697013624 a45.41704501731435,45.41704501731435 0 0,0 -0.7523416380149371,0.21261926184052266 l -6.437932205452128 -23.553027752192666" fill="red" stroke="none" /><path d="M 104.83641907484287 120.43548508189849 l 7.017925070009579 29.653076140578605 a51.47222008464794,51.47222008464794 0 0,0 -0.8639485926597348,0.19663188691422737 l -6.5064563279569825 -29.769484761070515" fill="red" stroke="none" /><path d="M 104.13013068566511 120.58985236759428 l 5.976969712064815 29.796859553169057 a51.39040977298961,51.39040977298961 0 0,0 -0.8688218938020046,0.16651178376068937 l -5.463180203691105 -29.895328535278214" fill="red" stroke="none" /><path d="M 103.06178313531738 120.77559828337769 l 4.57571061019093 31.04828830029523 a52.3836475567526,52.3836475567526 0 0,0 -0.8931945942580453,0.12378863195648644 l -4.040587424746054 -31.12245149774432" fill="red" stroke="none" /><path d="M 102.34483914955558 120.86867818915974 l 3.393971971818272 30.205785704459625 a51.395863793766836,51.395863793766836 0 0,0 -0.88001320426366,0.09121696677883384 l -2.8735261709490096 -30.259732039694217" fill="red" stroke="none" /><path d="M 101.62511606390274 120.93702456842531 l 2.4425982162862776 31.468976278754305 a52.56363024240092,52.56363024240092 0 0,0 -0.9026858330503139,0.0622545001124938 l -1.9005496224570335 -31.50635912338308" fill="red" stroke="none" /><path d="M 100.90346689309514 120.98055641714683 l 1.4639448686278957 33.99612995515233 a55.02763562908812,55.02763562908812 0 0,0 -0.946684040392968,0.032605712488962234 l -0.8785404765602756 -34.01629246606738" fill="red" stroke="none" /><line stroke="#e1ed5e" stroke-width="0.3" x1="102.19456741930631" x2="102.32365962044197" y1="184.97166512339345" y2="189.96999836594603" /><path d="M 102.22038585953345 185.97133177190398 a86.0,86.0 0 0,1 -42.740103519485714,-10.115201625700543" fill="none" id="id79" stroke="none" /><text fill="#e1ed5e" style="font-size:6.75px; font-family:Arial;" text-anchor="middle"><textPath startOffset="22.20632615414155" xlink:href="#id79">July</textPath></text><path d="M 100.18074693466247 120.99922214144158 l 0.23436423668300602 27.228493126627388 a48.22950173143517,48.22950173143517 0 0,0 -0.8302223426909042,0.0 l 0.23436423668298728 -27.228493126627388" fill="red" stroke="none" /><path d="M 99.45781275523022 120.99299961872073 l -0.7837568002766238 30.346354268004365 a51.35647364370912,51.35647364370912 0 0,0 -0.8835261303442712,-0.030430426365413068 l 1.306003282295538 -30.328367043212857" fill="red" stroke="none" /><path d="M 98.37488393609728 120.93702456842531 l -2.3584192050885253 30.38446418467033 a51.47585609849942,51.47585609849942 0 0,0 -0.8828248606187277,-0.07617384370746635 l 2.8810883834487946 -30.339366088684198" fill="red" stroke="none" /><path d="M 97.65516085044442 120.86867818915974 l -3.575045160473826 31.81730694823198 a53.017525971527505,53.017525971527505 0 0,0 -0.9060255318496175,-0.10970707425632509 l 4.122198115374833 -31.751054345250306" fill="red" stroke="none" /><path d="M 96.22490169976321 120.6578951692458 l -4.36605587755551 23.89170226797903 a45.28736052327818,45.28736052327818 0 0,0 -0.7656418874443381,-0.1467370899717539 l 4.7766653795715435 -23.81300797965881" fill="red" stroke="none" /><path d="M 95.51606077576429 120.51570834832081 l -6.877300012546986 31.466234091378936 a53.20902270103886,53.20902270103886 0 0,0 -0.8931003986959027,-0.20326674305792164 l 7.417920560635751 -31.343190614743328" fill="red" stroke="none" /><path d="M 94.11515582081647 120.15858648285463 l -8.85290915462727 30.325719659610286 a52.591506348595615,52.591506348595615 0 0,0 -0.866820784720649,-0.2611659917970087 l 9.373604913788165 -30.16883829870755" fill="red" stroke="none" /><path d="M 93.42475214034765 119.94407469862007 l -9.486799994812378 28.775409199161395 a51.298903424394,51.298903424394 0 0,0 -0.8362460623476314,-0.2837000675767032 l 9.980715790097236 -28.60784614468657" fill="red" stroke="none" /><path d="M 92.7421414339146 119.70592522655815 l -10.918413569890284 29.644755328560105 a52.591506348595615,52.591506348595615 0 0,0 -0.8467978300730863,-0.3201864817236218 l 11.427081620723653 -29.45242059672985" fill="red" stroke="none" /><path d="M 92.06813273071674 119.44442032107085 l -11.1522999892638 27.33908689794734 a50.52625048095422,50.52625048095422 0 0,0 -0.8024736466656336,-0.3354340493887758 l 11.621245095426897 -27.14306780553859" fill="red" stroke="none" /><path d="M 91.07499286063937 119.00905698771935 l -12.735133551942052 27.1241104522439 a50.9649961523663,50.9649961523663 0 0,0 -0.7908974581653611,-0.37967884267876023 l 13.200143678107654 -26.90087733306558" fill="red" stroke="none" /><line stroke="#e1ed5e" stroke-width="0.3" x1="58.666819895761336" x2="56.23545636021788" y1="174.27360380694188" y2="178.64263932499728" /><path d="M 58.180547188652646 175.14741091055294 a86.0,86.0 0 0,1 -31.652253787137756,-30.449443065178592" fill="none" id="id80" stroke="none" /><text fill="#e1ed5e" style="font-size:6.75px; font-family:Arial;" text-anchor="middle"><textPath startOffset="22.20632615414155" xlink:href="#id80">August</textPath></text><path d="M 88.54995079064634 117.60387380957326 l -15.182329101209842 23.342066112237827 a48.845200076952665,48.845200076952665 0 0,0 -0.7008711727759335,-0.4644991959789492 l 15.581874972725737 -23.07726889516756" fill="red" stroke="none" /><path d="M 87.95078237400918 117.19931262002967 l -17.41735502080989 24.86190749603289 a51.355867641400536,51.355867641400536 0 0,0 -0.7196489714987588,-0.5134504332990868 l 17.842731320157533 -24.558412800889588" fill="red" stroke="none" /><path d="M 86.51685102203217 116.09983520530335 l -23.43780092732281 27.98639495278173 a57.50436706425548,57.50436706425548 0 0,0 -0.7534017441410445,-0.6420653110587871 l 23.916068148040914 -27.57880525149999" fill="red" stroke="none" /><path d="M 85.70375840098266 115.38237550388516 l -20.703834685841237 22.27677514416536 a51.4122258560985,51.4122258560985 0 0,0 -0.6430547336477667,-0.6080483881166797 l 21.08422525387982 -21.91709211930275" fill="red" stroke="none" /><path d="M 84.9287848128048 114.62390073753433 l -24.911431359388803 24.172058782567195 a55.7112062331666,55.7112062331666 0 0,0 -0.6618848080928978,-0.6939835751048116 l 25.323822718860658 -23.739668090879885" fill="red" stroke="none" /><path d="M 84.4343377721795 114.09645910891817 l -22.498640525213737 20.375051284556363 a51.35344363216622,51.35344363216622 0 0,0 -0.5877307484321088,-0.6603217263543474 l 22.84603012329418 -19.98475538846115" fill="red" stroke="none" /><path d="M 83.95833913139862 113.55231037782056 l -26.216449979939473 22.14817219008596 a55.31972874182378,55.31972874182378 0 0,0 -0.6082641262519818,-0.7326933242408858 l 26.59381010608499 -21.69361760873131" fill="red" stroke="none" /><path d="M 83.06392112726016 112.41649034213515 l -22.274788383499335 16.330503472205464 a48.61976721816083,48.61976721816083 0 0,0 -0.489022729831884,-0.6792098005998417 l 22.552590905706825 -15.944660066154484" fill="red" stroke="none" /><path d="M 82.6465618267979 111.8261652097733 l -34.90034147571105 23.784174643076092 a63.234118891881494,63.234118891881494 0 0,0 -0.6052315013979451,-0.9047389757014555 l 35.30457608251973 -23.179898753168814" fill="red" stroke="none" /><path d="M 82.05923443525364 110.91462005526583 l -36.344028741204156 22.11060969256429 a63.541362062331665,63.541362062331665 0 0,0 -0.5604321637203172,-0.9393165423930828 l 36.71924178062271 -21.481731056285096" fill="red" stroke="none" /><line stroke="#e1ed5e" stroke-width="0.3" x1="26.63291911575756" x2="22.317208475507996" y1="142.92168965132927" y2="145.44649492493687" /><path d="M 25.769776987707644 143.4266507060508 a86.0,86.0 0 0,1 -11.730757126820373,-40.83630448921669" fill="none" id="id81" stroke="none" /><text fill="#e1ed5e" style="font-size:6.75px; font-family:Arial;" text-anchor="middle"><textPath startOffset="21.46611528233685" xlink:href="#id81">September</textPath></text><path d="M 81.69416730710424 110.29060199501025 l -38.35350164010206 21.560375160996266 a64.99819161215852,64.99819161215852 0 0,0 -0.5398675219119528,-0.9800163673922263 l 38.71894557146553 -20.89698827520622" fill="red" stroke="none" /><path d="M 81.35079622478065 109.6543875284942 l -40.482369822527666 20.95706020746207 a66.58531165833013,66.58531165833013 0 0,0 -0.5181647716143006,-1.0223882526996504 l 40.83711326392823 -20.257117743059734" fill="red" stroke="none" /><path d="M 80.87730276802145 108.67885076344099 l -48.10951298802482 21.834539262937074 a73.83249326664102,73.83249326664102 0 0,0 -0.5152766726068567,-1.1618128676596837 l 48.47823074536296 -21.003178058784695" fill="red" stroke="none" /><path d="M 80.45479744820244 107.68017299344265 l -31.862101885925256 12.520026526718999 a55.233676414005394,55.233676414005394 0 0,0 -0.3400966818767606,-0.8878851178348323 l 32.07289284739553 -11.969717842051008" fill="red" stroke="none" /><path d="M 80.20201598880116 107.00284435728193 l -28.661752458844454 10.138092411969597 a51.40192381685264,51.40192381685264 0 0,0 -0.28787321657235776,-0.8366943178249824 l 28.832016506360038 -9.643225391055319" fill="red" stroke="none" /><path d="M 79.76711848015287 105.62410040840567 l -38.61802374429766 10.734587799521968 a61.082204694113116,61.082204694113116 0 0,0 -0.2728685296971601,-1.0154453085877402 l 38.797080350336586 -10.068251557758689" fill="red" stroke="none" /><path d="M 79.58551787078972 104.9243191809786 l -44.75555125972578 10.795797715004994 a67.03920738745671,67.03920738745671 0 0,0 -0.26094032725308847,-1.124124100363453 l 44.93475215290942 -10.023804957292967" fill="red" stroke="none" /><path d="M 79.29508885075956 103.50808413554451 l -60.664632850591445 10.278558287829183 a82.52923239707579,82.52923239707579 0 0,0 -0.22525861023379576,-1.4026855809520036 l 60.83257321518653 -9.232793477183966" fill="red" stroke="none" /><path d="M 79.10278846688536 102.07522291339032 l -42.16247610891044 4.186995780170563 a63.36986340900346,63.36986340900346 0 0,0 -0.09845082750406327,-1.0863966777322118 l 42.22830153269158 -3.460617713889785" fill="red" stroke="none" /><path d="M 79.04373962182676 101.35467743843564 l -62.86878113451971 4.064032315306924 a84.0,84.0 0 0,0 -0.08085459644987347,-1.4437131346582497 l 62.92942208185711 -2.9812474643132365" fill="red" stroke="none" /><line stroke="#e1ed5e" stroke-width="0.3" x1="15.007084014347285" x2="10.007500721073583" y1="101.09737516637583" y2="101.16192664675087" /><path d="M 14.007167355692545 101.11028546245083 a86.0,86.0 0 0,1 10.666146001902534,-42.60595125391555" fill="none" id="id82" stroke="none" /><text fill="#e1ed5e" style="font-size:6.75px; font-family:Arial;" text-anchor="middle"><textPath startOffset="22.20632615414155" xlink:href="#id82">October</textPath></text><path d="M 79.00175016825051 100.2711162175752 l -54.662306244871786 0.7057653772001233 a75.66686225471335,75.66686225471335 0 0,0 -0.005605482985926652,-1.3025168342450928 l 54.666356025147216 0.23526093524864475" fill="red" stroke="none" /><path d="M 79.00486145842228 99.54816195383935 l -45.64503874328365 -0.9823305086484342 a66.65560792612543,66.65560792612543 0 0,0 0.03456031549258954,-1.1468886183449654 l 45.621366733335414 1.767889274418394" fill="red" stroke="none" /><line stroke="#e1ed5e" stroke-width="0.3" x1="26.266209847984243" x2="21.928928074336255" y1="57.711370442889674" y2="55.22380399835377" /><path d="M 25.398753493254645 57.213857153982495 a86.0,86.0 0 0,1 29.58750427330803,-30.492523968695096" fill="none" id="id83" stroke="none" /><text fill="#e1ed5e" style="font-size:6.75px; font-family:Arial;" text-anchor="middle"><textPath startOffset="21.46611528233685" xlink:href="#id83">November</textPath></text><line stroke="#e1ed5e" stroke-width="0.3" x1="56.76296977257108" x2="54.21961505331056" y1="26.818313649435495" y2="22.513508569990535" /><path d="M 56.25429882871898 25.957352633546506 a86.0,86.0 0 0,1 42.26535254187918,-11.944610805530505" fill="none" id="id84" stroke="none" /><text fill="#e1ed5e" style="font-size:6.75px; font-family:Arial;" text-anchor="middle"><textPath startOffset="22.20632615414155" xlink:href="#id84">December</textPath></text></svg>