<?xml version="1.0" encoding="utf-8" ?>
<svg baseProfile="full" height="200mm" version="1.1" viewBox="0,0,200,200" width="200mm" xmlns="http://www.w3.org/2000/svg" xmlns:ev="http://www.w3.org/2001/xml-events" xmlns:xlink="http://www.w3.org/1999/xlink"><defs /><rect fill="#1a1a1a" height="200" width="200" x="0" y="0" /><rect fill="#1a1a1a" height="200" width="180" x="10" y="0" /><text alignment-baseline="middle" fill="#e1ed5e" style="dominant-baseline: central; font-size:9.0px; font-family:Arial;" text-anchor="middle" x="100.0" y="100.0">2025</text><line stroke="#e1ed5e" stroke-width="0.3" x1="100.0" x2="100.0" y1="15.0" y2="10.0" /><path d="M 100.0 14.0 a86.0,86.0 0 0,1 42.46469731375804,11.215312516191453" fill="none" id="id73" stroke="none" /><text fill="#e1ed5e" style="font-size:6.75px; font-family:Arial;" text-anchor="middle"><textPath startOffset="22.20632615414155" xlink:href="#id73">January</textPath></text><line stroke="#e1ed5e" stroke-width="0.3" x1="143.23703022742887" x2="145.7803849466894" y1="26.81831364943548" y2="22.513508569990506" /><path d="M 143.74570117128098 25.957352633546492 a86.0,86.0 0 0,1 28.547481713284135,27.462654790039103" fill="none" id="id74" stroke="none" /><text fill="#e1ed5e" style="font-size:6.75px; font-family:Arial;" text-anchor="middle"><textPath startOffset="19.985693538727396" xlink:href="#id74">February</textPath></text><line stroke="#e1ed5e" stroke-width="0.3" x1="172.23445277983987" x2="176.4835382374775" y1="55.19839476539836" y2="52.563006222186495" /><path d="M 173.08426987136738 54.67131705675599 a86.0,86.0 0 0,1 12.851231095245387,41.99856678651699" fill="none" id="id75" stroke="none" /><text fill="#e1ed5e" style="font-size:6.75px; font-family:Arial;" text-anchor="middle"><textPath startOffset="22.20632615414155" xlink:href="#id75">March</textPath></text><line stroke="#e1ed5e" stroke-width="0.3" x1="184.98032266829074" x2="189.97916517819016" y1="98.17113171792111" y2="98.06355123074" /><path d="M 185.9800911702706 98.14961562048488 a86.0,86.0 0 0,1 -9.607161424134198,41.387399972396054" fill="none" id="id76" stroke="none" /><text fill="#e1ed5e" style="font-size:6.75px; font-family:Arial;" text-anchor="middle"><textPath startOffset="21.466115282336823" xlink:href="#id76">April</textPath></text><line stroke="#e1ed5e" stroke-width="0.3" x1="174.80103733775053" x2="179.2010983576182" y1="140.37084112569926" y2="142.7455964860345" /><path d="M 175.68104954172406 140.8457921977663 a86.0,86.0 0 0,1 -30.038265399797805,32.042727171017184" fill="none" id="id77" stroke="none" /><text fill="#e1ed5e" style="font-size:6.75px; font-family:Arial;" text-anchor="middle"><textPath startOffset="22.206326154141568" xlink:href="#id77">May</textPath></text><line stroke="#e1ed5e" stroke-width="0.3" x1="143.8653032363475" x2="146.44561519142675" y1="172.8068346515853" y2="177.08958963109032" /><path d="M 144.38136562736335 173.6633856474863 a86.0,86.0 0 0,1 -40.68145358897372,12.25698825130547" fill="none" id="id78" stroke="none" /><text fill="#e1ed5e" style="font-size:6.75px; font-family:Arial;" text-anchor="middle"><textPath startOffset="21.466115282336833" xlink:href="#id78">June</textPath></text><path d="M 109.57404056367764 118.69057910512821 l 8.10888694585463 15.830285228896026 a38.78628623206248,38.78628623206248 0 0,0 -0.596839849113759,0.2992678905376616 l -7.83519318905811 -15.96752096034299" fill="red" stroke="none" /><path d="M 108.59647513512805 119.15986991738527 l 9.051559234399353 20.174163800220867 a43.11170752366226,43.11170752366226 0 0,0 -0.6796854781564925,0.2979541395088356 l -8.702953081585106 -20.326982493024154" fill="red" stroke="none" /><path d="M 107.93186726928326 119.44442032107085 l 9.76802505342471 23.945633278694956 a46.86131602533166,46.86131602533166 0 0,0 -0.7495108762785927,0.2982458458128585 l -9.354393101104252 -24.110225968913884" fill="red" stroke="none" /><path d="M 106.91757812671514 119.82793768551818 l 8.489708520517663 24.334154010194222 a46.77258625274541,46.77258625274541 0 0,0 -0.7624605687199487,0.25866802202113165 l -8.069578218860489 -24.47668501911348" fill="red" stroke="none" /><path d="M 105.88484417918355 120.15858648285463 l 7.005962839697349 23.99898850326038 a46.00069928003703,46.00069928003703 0 0,0 -0.7620099773770375,0.21535163111868377 l -6.591821694215707 -24.116028927717586" fill="red" stroke="none" /><path d="M 104.83641907484287 120.43548508189849 l 7.185678452111097 30.3618901792969 a52.20061457851142,52.20061457851142 0 0,0 -0.8761745156302139,0.1994144671781206 l -6.661983787088021 -30.481081380052707" fill="red" stroke="none" /><path d="M 104.13013068566511 120.58985236759428 l 6.119840556924921 30.509110527094194 a52.11684870928663,52.11684870928663 0 0,0 -0.8811032913458867,0.1688655428299469 l -5.593769651007331 -30.60993326827261" fill="red" stroke="none" /><path d="M 103.06178313531738 120.77559828337769 l 4.6850863762072334 31.79045287442203 a53.13382841046754,53.13382841046754 0 0,0 -0.9059859425987297,0.12556139628147378 l -4.137171842421674 -31.86638883619611" fill="red" stroke="none" /><path d="M 102.34483914955558 120.86867818915974 l 3.475099979220821 30.92781146854346 a52.122433100568294,52.122433100568294 0 0,0 -0.8924537108842633,0.09250647615622204 l -2.942213671730955 -30.983047313155442" fill="red" stroke="none" /><path d="M 101.62511606390274 120.93702456842531 l 2.5009850055166445 32.22119679256299 a53.31811332276206,53.31811332276206 0 0,0 -0.9156427232950972,0.06314808312406686 l -1.945979521442617 -32.25947322020334" fill="red" stroke="none" /><path d="M 100.90346689309514 120.98055641714683 l 1.498938360361223 34.80875843457433 a55.84101720622852,55.84101720622852 0 0,0 -0.9606772884950443,0.03308766824709842 l -0.8995407201915263 -34.82940290124752" fill="red" stroke="none" /><line stroke="#e1ed5e" stroke-width="0.3" x1="102.19456741930631" x2="102.32365962044197" y1="184.97166512339345" y2="189.96999836594603" /><path d="M 102.22038585953345 185.97133177190398 a86.0,86.0 0 0,1 -42.740103519485714,-10.115201625700543" fill="none" id="id79" stroke="none" /><text fill="#e1ed5e" style="font-size:6.75px; font-family:Arial;" text-anchor="middle"><textPath startOffset="22.20632615414155" xlink:href="#id79">July</textPath></text><path d="M 100.18074693466247 120.99922214144158 l 0.23996637591290818 27.8793510035573 a48.88038371760906,48.88038371760906 0 0,0 -0.8414266211507081,0.0 l 0.23996637591288897 -27.8793510035573" fill="red" stroke="none" /><path d="M 99.45781275523022 120.99299961872073 l -0.8024913767618195 31.07174012096298 a52.08210138575636,52.08210138575636 0 0,0 -0.8960096796519831,-0.030860385044551745 l 1.3372214080884455 -31.053322937492332" fill="red" stroke="none" /><path d="M 98.37488393609728 120.93702456842531 l -2.4147938164045493 31.110761000249454 a52.20433750603252,52.20433750603252 0 0,0 -0.8953185138731413,-0.0772518486808084 l 2.9499566480192323 -31.064584899289983" fill="red" stroke="none" /><path d="M 97.65516085044442 120.86867818915974 l -3.6605014614249454 32.577853804558096 a53.78285877497956,53.78285877497956 0 0,0 -0.9191044344876244,-0.1112907472240944 l 4.220733318963959 -32.51001752860865" fill="red" stroke="none" /><path d="M 96.22490169976321 120.6578951692458 l -4.470420149416161 24.46279896958724 a45.867914865117754,45.867914865117754 0 0,0 -0.775456915675484,-0.14861816349221701 l 4.89084467966334 -24.382223607746553" fill="red" stroke="none" /><path d="M 95.51606077576429 120.51570834832081 l -7.041691955368054 32.21838905715141 a53.97893295775758,53.97893295775758 0 0,0 -0.9060231535658607,-0.2062079199934463 l 7.5952352583267775 -32.092404403580275" fill="red" stroke="none" /><path d="M 94.11515582081647 120.15858648285463 l -9.06452518604839 31.050612272001082 a53.34665576709051,53.34665576709051 0 0,0 -0.8792672662338862,-0.2649160145769024 l 9.597667426722522 -30.88998088831845" fill="red" stroke="none" /><path d="M 93.42475214034765 119.94407469862007 l -9.713568272982135 29.463243874846793 a52.023155033338924,52.023155033338924 0 0,0 -0.8480524074290962,-0.28770542084323136 l 10.219290413348457 -29.29167546710544" fill="red" stroke="none" /><path d="M 92.7421414339146 119.70592522655815 l -11.179402506828263 30.353370470261975 a53.34665576709051,53.34665576709051 0 0,0 -0.8589568065573091,-0.3247839662276947 l 11.700229534145855 -30.15643825392765" fill="red" stroke="none" /><path d="M 92.06813273071674 119.44442032107085 l -11.418879643897695 27.992588359554087 a51.23203293510485,51.23203293510485 0 0,0 -0.8136831034201649,-0.34011960322128376 l 11.899034206815323 -27.79188371331283" fill="red" stroke="none" /><path d="M 91.07499286063937 119.00905698771935 l -13.039548561156426 27.77247321181562 a51.68126618931775,51.68126618931775 0 0,0 -0.8020128548955267,-0.3850149085907867 l 13.515674084052195 -27.543904026725272" fill="red" stroke="none" /><line stroke="#e1ed5e" stroke-width="0.3" x1="58.666819895761336" x2="56.23545636021788" y1="174.27360380694188" y2="178.64263932499728" /><path d="M 58.180547188652646 175.14741091055294 a86.0,86.0 0 0,1 -31.652253787137756,-30.449443065178592" fill="none" id="id80" stroke="none" /><text fill="#e1ed5e" style="font-size:6.75px; font-family:Arial;" text-anchor="middle"><textPath startOffset="22.20632615414155" xlink:href="#id80">August</textPath></text><path d="M 88.54995079064634 117.60387380957326 l -15.54524079227222 23.900024553871596 a49.51079944451557,49.51079944451557 0 0,0 -0.7104217408687612,-0.47082879173431486 l 15.954337231880944 -23.62889774104596" fill="red" stroke="none" /><path d="M 87.95078237400918 117.19931262002967 l -17.833691784576406 25.45619555501738 a52.08148089783617,52.08148089783617 0 0,0 -0.729816978733025,-0.5207050364833994 l 18.269236091158316 -25.145446256689763" fill="red" stroke="none" /><path d="M 86.51685102203217 116.09983520530335 l -23.998047771704567 28.655369380311708 a58.376951336018834,58.376951336018834 0 0,0 -0.7648340326057096,-0.6518081553065763 l 24.48774728088733 -28.23803683478218" fill="red" stroke="none" /><path d="M 85.70375840098266 115.38237550388516 l -21.198730008372205 22.80926934087864 a52.13918627441325,52.13918627441325 0 0,0 -0.6521474218243165,-0.616646092324588 l 21.588213264587335 -22.440988611808123" fill="red" stroke="none" /><path d="M 84.9287848128048 114.62390073753433 l -25.506903214935637 24.749857002508403 a56.5409275801956,56.5409275801956 0 0,0 -0.6717424290578865,-0.7043192512763529 l 25.92915219537248 -24.30713063464955" fill="red" stroke="none" /><path d="M 84.4343377721795 114.09645910891817 l -23.03643809403071 20.862087513837665 a52.07899894615544,52.07899894615544 0 0,0 -0.5960345959943913,-0.6696511871190552 l 23.392131539673436 -20.46246215697774" fill="red" stroke="none" /><path d="M 83.95833913139862 113.55231037782056 l -26.843116424359643 22.677592318569687 a56.14009238375701,56.14009238375701 0 0,0 -0.6172843760836145,-0.743558796244547 l 27.229496800336793 -22.21217226521138" fill="red" stroke="none" /><path d="M 83.06392112726016 112.41649034213515 l -22.80723508956291 16.720860616454555 a49.27997793820728,49.27997793820728 0 0,0 -0.4956631986587441,-0.6884328310085337 l 23.09167808059726 -16.32579417999488" fill="red" stroke="none" /><path d="M 82.6465618267979 111.8261652097733 l -35.73458382806498 24.352701051817544 a64.24366462135464,64.24366462135464 0 0,0 -0.6148941469488957,-0.9191833197551619 l 36.14848108042461 -23.733980817856562" fill="red" stroke="none" /><path d="M 82.05923443525364 110.91462005526583 l -37.212780356490846 22.639131943693027 a64.55825199688772,64.55825199688772 0 0,0 -0.569401090538877,-0.9543489796326957 l 37.596962322727954 -21.99522087017422" fill="red" stroke="none" /><line stroke="#e1ed5e" stroke-width="0.3" x1="26.63291911575756" x2="22.317208475507996" y1="142.92168965132927" y2="145.44649492493687" /><path d="M 25.769776987707644 143.4266507060508 a86.0,86.0 0 0,1 -11.730757126820373,-40.83630448921669" fill="none" id="id81" stroke="none" /><text fill="#e1ed5e" style="font-size:6.75px; font-family:Arial;" text-anchor="middle"><textPath startOffset="21.46611528233685" xlink:href="#id81">September</textPath></text><path d="M 81.69416730710424 110.29060199501025 l -39.27028680827918 22.075744848839015 a66.04990495700905,66.04990495700905 0 0,0 -0.5486029322851235,-0.9958736745909936 l 39.64446615001582 -21.3965006558502" fill="red" stroke="none" /><path d="M 81.35079622478065 109.6543875284942 l -41.450042515733564 21.458008521049873 a67.67496281996986,67.67496281996986 0 0,0 -0.5266444022002104,-1.0391193683084128 l 41.813265587720046 -20.741334941038776" fill="red" stroke="none" /><path d="M 80.87730276802145 108.67885076344099 l -49.25950154368591 22.356462448415183 a75.09537785744538,75.09537785744538 0 0,0 -0.5240903390705647,-1.1816853587953524 l 49.637032967487755 -21.505228753127135" fill="red" stroke="none" /><path d="M 80.45479744820244 107.68017299344265 l -32.62371950066273 12.819299712583168 a56.05198309909094,56.05198309909094 0 0,0 -0.3451353359447813,-0.9010394536437732 l 32.83954911620102 -12.255836692106238" fill="red" stroke="none" /><path d="M 80.20201598880116 107.00284435728193 l -29.346870333994563 10.380428896500247 a52.12863797977013,52.12863797977013 0 0,0 -0.2919431331839061,-0.8485234005838781 l 29.5212042981217 -9.873732792827072" fill="red" stroke="none" /><path d="M 79.76711848015287 105.62410040840567 l -39.54113193205347 10.99118264641352 a62.04031201678272,62.04031201678272 0 0,0 -0.2771486197452872,-1.0313731158894006 l 39.72446862814053 -10.30891859734858" fill="red" stroke="none" /><path d="M 79.58551787078972 104.9243191809786 l -45.825368195178825 11.05385569668895 a68.13970827218736,68.13970827218736 0 0,0 -0.26522386627741257,-1.1425774743696095 l 46.00885262738679 -10.263409564970766" fill="red" stroke="none" /><path d="M 79.29508885075956 103.50808413554451 l -62.11473344772131 10.524252406633527 a84.0,84.0 0 0,0 -0.22927298255483697,-1.4276830812271453 l 62.286688184637434 -9.45349009571317" fill="red" stroke="none" /><line stroke="#e1ed5e" stroke-width="0.3" x1="15.007084014347285" x2="10.007500721073583" y1="101.09737516637583" y2="101.16192664675087" /><path d="M 14.007167355692545 101.11028546245083 a86.0,86.0 0 0,1 10.666146001902534,-42.60595125391555" fill="none" id="id82" stroke="none" /><text fill="#e1ed5e" style="font-size:6.75px; font-family:Arial;" text-anchor="middle"><textPath startOffset="22.20632615414155" xlink:href="#id82">October</textPath></text><line stroke="#e1ed5e" stroke-width="0.3" x1="26.266209847984243" x2="21.928928074336255" y1="57.711370442889674" y2="55.22380399835377" /><path d="M 25.398753493254645 57.213857153982495 a86.0,86.0 0 0,1 29.58750427330803,-30.492523968695096" fill="none" id="id83" stroke="none" /><text fill="#e1ed5e" style="font-size:6.75px; font-family:Arial;" text-anchor="middle"><textPath startOffset="21.46611528233685" xlink:href="#id83">November</textPath></text><line stroke="#e1ed5e" stroke-width="0.3" x1="56.76296977257108" x2="54.21961505331056" y1="26.818313649435495" y2="22.513508569990535" /><path d="M 56.25429882871898 25.957352633546506 a86.0,86.0 0 0,1 42.26535254187918,-11.944610805530505" fill="none" id="id84" stroke="none" /><text fill="#e1ed5e" style="font-size:6.75px; font-family:Arial;" text-anchor="middle"><textPath startOffset="22.20632615414155" xlink:href="#id84">December</textPath></text></svg>